STARTFONT 2.1
COMMENT
COMMENT Converted from OpenType font "manrope-medium.otf" by "otf2bdf 3.0".
COMMENT
FONT -FreeType-Manrope Medium-Medium-R-Normal--54-390-100-100-P-248-ISO10646-1
SIZE 39 100 100
FONTBOUNDINGBOX 53 68 -2 -13
STARTPROPERTIES 19
FOUNDRY "FreeType"
FAMILY_NAME "Manrope Medium"
WEIGHT_NAME "Medium"
SLANT "R"
SETWIDTH_NAME "Normal"
ADD_STYLE_NAME ""
PIXEL_SIZE 54
POINT_SIZE 390
RESOLUTION_X 100
RESOLUTION_Y 100
SPACING "P"
AVERAGE_WIDTH 248
CHARSET_REGISTRY "ISO10646"
CHARSET_ENCODING "1"
FONT_ASCENT 57
FONT_DESCENT 16
COPYRIGHT "Copyright 2019-2021 The Manrope Project Authors (https://github.com/sharanda/manrope)"
_OTF_FONTFILE "manrope-medium.otf"
_OTF_PSNAME "Manrope-Medium"
ENDPROPERTIES
CHARS 191
STARTCHAR 0020
ENCODING 32
SWIDTH 203 0
DWIDTH 11 0
BBX 0 0 0 0
BITMAP
ENDCHAR
STARTCHAR 0021
ENCODING 33
SWIDTH 332 0
DWIDTH 18 0
BBX 5 39 6 0
BITMAP
F8
F8
F8
F8
F8
F8
F8
F8
F8
F8
F8
F8
F8
F8
F8
F8
F8
F8
F8
F8
F8
F8
F8
F8
F8
F8
F8
F8
F8
00
00
00
00
00
F8
F8
F8
F8
F8
ENDCHAR
STARTCHAR 0022
ENCODING 34
SWIDTH 424 0
DWIDTH 23 0
BBX 14 10 3 29
BITMAP
F87C
F87C
F87C
F87C
F87C
F87C
F87C
F87C
F87C
F87C
ENDCHAR
STARTCHAR 0023
ENCODING 35
SWIDTH 923 0
DWIDTH 50 0
BBX 44 39 3 0
BITMAP
00003E01F000
00003E01F000
00003C01E000
00007C03E000
00007C03E000
00007C03E000
0000F807C000
0000F807C000
0000F807C000
0000F0078000
07FFFFFFFFF0
07FFFFFFFFF0
0FFFFFFFFFE0
0FFFFFFFFFE0
0FFFFFFFFFE0
0003E01F0000
0003E01F0000
0003C01E0000
0007C03E0000
0007C03E0000
0007803C0000
0007807C0000
000F807C0000
7FFFFFFFFF00
7FFFFFFFFF00
7FFFFFFFFF00
7FFFFFFFFF00
FFFFFFFFFE00
001E00F00000
003E01F00000
003E01F00000
003E01F00000
003C01E00000
007C03E00000
007C03E00000
007C03E00000
00F807C00000
00F807C00000
00F807C00000
ENDCHAR
STARTCHAR 0024
ENCODING 36
SWIDTH 609 0
DWIDTH 33 0
BBX 29 49 2 -5
BITMAP
000F8000
000F8000
000F8000
000F8000
000F8000
007FE000
01FFFC00
07FFFE00
0FFFFF80
1FF0FF80
1F801FC0
3F0007E0
3E0003E0
3C0003F0
7C0001F0
7C0001F0
7C000080
7E000000
3F000000
3F800000
1FF00000
0FFE0000
07FFC000
03FFFC00
00FFFF00
000FFF80
0001FFE0
00003FE0
000007F0
000003F0
000001F0
000000F8
180000F8
F80000F8
F80000F8
7C0001F0
7E0001F0
3F0003F0
3F8007E0
1FF03FC0
0FFFFF80
07FFFF00
01FFFE00
003FF000
000F8000
000F8000
000F8000
000F8000
000F8000
ENDCHAR
STARTCHAR 0025
ENCODING 37
SWIDTH 904 0
DWIDTH 49 0
BBX 43 39 3 0
BITMAP
01F800000400
07FE00000E00
0FFF00001F00
1FFF80003F80
3F9FC0007F00
7C07E000FE00
7803E001FC00
F801F003F800
F801F007F000
F801F00FE000
F801F01FC000
F801F03F8000
7C03E07F0000
7E07E0FE0000
3F9FC1FC0000
3FFFC3F80000
1FFF87F00000
07FE0FE00000
01F81FC00000
00003F800000
00007F03F000
0000FE0FFC00
0001FC3FFE00
0003F87FFF00
0007F07F3F80
000FE0F80FC0
001FC0F007C0
007F81F003C0
00FF01E003C0
01FE01E003E0
03FC01E003C0
07F801F003C0
0FF000F007C0
1FE000F80FC0
3FC000FF3F80
3F80007FFF00
1F00003FFE00
0E00000FFC00
04000003F000
ENDCHAR
STARTCHAR 0026
ENCODING 38
SWIDTH 664 0
DWIDTH 36 0
BBX 32 39 3 0
BITMAP
003F8000
01FFF000
07FFFC00
0FFFFE00
0FFFFE00
1FC03F00
1F001F80
3E000E00
3E000000
3E000000
3E000000
3E000000
3E000000
3F000000
1F000000
1F800000
0FE00000
07F00000
07F80000
1FFC0000
3FFE01F0
7F3F01F0
7E1F81F0
FC0FC1F0
F807E1F0
F803F9F0
F801FDF0
F8007FE0
F8003FE0
F8001FE0
F8000FE0
FC0007E0
7E000FF0
7F803FF8
3FFFFFFE
1FFFFF7F
0FFFFE3E
03FFF81C
007FC008
ENDCHAR
STARTCHAR 0027
ENCODING 39
SWIDTH 221 0
DWIDTH 12 0
BBX 5 10 3 29
BITMAP
F8
F8
F8
F8
F8
F8
F8
F8
F8
F8
ENDCHAR
STARTCHAR 0028
ENCODING 40
SWIDTH 443 0
DWIDTH 24 0
BBX 13 55 8 -9
BITMAP
0060
00F0
01F8
01F0
03E0
07E0
07C0
0F80
0F80
1F00
1F00
3E00
3E00
3C00
7C00
7C00
7800
7800
F800
F800
F800
F000
F000
F000
F000
F000
F000
F000
F000
F000
F000
F000
F000
F000
F800
F800
7800
7800
7C00
7C00
3C00
3E00
3E00
1F00
1F00
0F80
0F80
07C0
07C0
03E0
03F0
01F8
00F8
00F0
0040
ENDCHAR
STARTCHAR 0029
ENCODING 41
SWIDTH 443 0
DWIDTH 24 0
BBX 13 55 3 -9
BITMAP
7000
F800
F800
FC00
7E00
3E00
3F00
1F00
0F80
0F80
07C0
07C0
03C0
03E0
03E0
01E0
01F0
01F0
00F0
00F0
00F0
00F8
00F8
00F8
00F8
00F8
0078
0078
0078
00F8
00F8
00F8
00F8
00F0
00F0
00F0
01F0
01F0
01E0
01E0
03E0
03E0
07C0
07C0
0F80
0F80
1F00
1F00
3E00
7E00
7C00
FC00
F800
7000
2000
ENDCHAR
STARTCHAR 002A
ENCODING 42
SWIDTH 443 0
DWIDTH 24 0
BBX 19 18 2 21
BITMAP
01E000
01E000
01E000
01E000
01E040
71E1C0
FDEFC0
FFFFE0
FFFFE0
1FFF00
03F000
07F800
07FC00
0FBE00
1F3F00
3E1F00
1E0F00
0C0C00
ENDCHAR
STARTCHAR 002B
ENCODING 43
SWIDTH 572 0
DWIDTH 31 0
BBX 25 24 3 8
BITMAP
001E0000
001E0000
001E0000
001E0000
001E0000
001E0000
001E0000
001E0000
001E0000
001E0000
FFFFFF80
FFFFFF80
FFFFFF80
FFFFFF80
001E0000
001E0000
001E0000
001E0000
001E0000
001E0000
001E0000
001E0000
001E0000
001E0000
ENDCHAR
STARTCHAR 002C
ENCODING 44
SWIDTH 276 0
DWIDTH 15 0
BBX 6 12 3 -7
BITMAP
FC
FC
FC
FC
FC
FC
1C
1C
18
38
F8
E0
ENDCHAR
STARTCHAR 002D
ENCODING 45
SWIDTH 424 0
DWIDTH 23 0
BBX 17 4 3 15
BITMAP
FFFF80
FFFF80
FFFF80
FFFF80
ENDCHAR
STARTCHAR 002E
ENCODING 46
SWIDTH 276 0
DWIDTH 15 0
BBX 5 5 5 0
BITMAP
F8
F8
F8
F8
F8
ENDCHAR
STARTCHAR 002F
ENCODING 47
SWIDTH 406 0
DWIDTH 22 0
BBX 15 39 3 0
BITMAP
003E
003E
003E
003E
007C
007C
007C
007C
00F8
00F8
00F8
00F0
01F0
01F0
01F0
01E0
03E0
03E0
03E0
07C0
07C0
07C0
07C0
0F80
0F80
0F80
0F00
1F00
1F00
1F00
1E00
3E00
3E00
3E00
7C00
7C00
7C00
7C00
F800
ENDCHAR
STARTCHAR 0030
ENCODING 48
SWIDTH 627 0
DWIDTH 34 0
BBX 26 39 4 0
BITMAP
007F8000
03FFE000
07FFF800
0FFFFC00
1FFFFE00
3F807F00
7F003F80
7E001F80
FC000F80
F80007C0
F80007C0
F80007C0
F80007C0
F80007C0
F80007C0
F80007C0
F80007C0
F80007C0
F80007C0
F80007C0
F80007C0
F80007C0
F80007C0
F80007C0
F80007C0
F80007C0
F80007C0
F80007C0
F80007C0
F80007C0
FC000F80
7E001F80
7F003F80
3F807F00
1FFFFE00
0FFFFC00
07FFF800
03FFE000
007F8000
ENDCHAR
STARTCHAR 0031
ENCODING 49
SWIDTH 406 0
DWIDTH 22 0
BBX 12 39 3 0
BITMAP
01F0
07F0
1FF0
3FF0
FFF0
FEF0
FCF0
F0F0
C0F0
80F0
00F0
00F0
00F0
00F0
00F0
00F0
00F0
00F0
00F0
00F0
00F0
00F0
00F0
00F0
00F0
00F0
00F0
00F0
00F0
00F0
00F0
00F0
00F0
00F0
00F0
00F0
00F0
00F0
00F0
ENDCHAR
STARTCHAR 0032
ENCODING 50
SWIDTH 572 0
DWIDTH 31 0
BBX 26 39 3 0
BITMAP
007F8000
03FFE000
07FFF800
0FFFFC00
1FFFFE00
3F80FF00
7F003F00
7E001F80
FC000F80
F8000F80
F8000F80
F80007C0
000007C0
000007C0
00000F80
00000F80
00000F80
00001F80
00003F00
00007F00
0000FE00
0001FC00
0003F800
000FF000
001FC000
003F8000
007F0000
00FE0000
01FC0000
03F80000
0FF00000
1FC00000
3F800000
7F000000
FFFFFFC0
FFFFFFC0
FFFFFFC0
FFFFFFC0
FFFFFFC0
ENDCHAR
STARTCHAR 0033
ENCODING 51
SWIDTH 553 0
DWIDTH 30 0
BBX 25 39 2 0
BITMAP
3FFFFF80
3FFFFF80
3FFFFF80
3FFFFF80
3FFFFF80
00003F00
0000FE00
0001F800
0003F000
0007E000
000FC000
001F8000
007F0000
00FE0000
01FF8000
03FFE000
01FFF800
01FFFC00
00C1FE00
00007E00
00003F00
00001F00
00001F80
00000F80
00000F80
00000F80
00000F80
00000F80
00000F80
18000F80
F8001F80
7C001F00
7E003F00
3F80FE00
3FFFFC00
1FFFFC00
07FFF000
03FFE000
007F0000
ENDCHAR
STARTCHAR 0034
ENCODING 52
SWIDTH 590 0
DWIDTH 32 0
BBX 27 39 3 0
BITMAP
000FC000
000F8000
001F8000
001F0000
003F0000
003E0000
003E0000
007E0000
007C0000
00FC0000
00F80000
01F80000
01F00000
03F00000
03E00000
07E00000
07C03E00
0FC03E00
0F803E00
1F803E00
1F003E00
3F003E00
3E003E00
3E003E00
7E003E00
7C003E00
FC003E00
FFFFFFE0
FFFFFFE0
FFFFFFE0
FFFFFFE0
FFFFFFE0
00003E00
00003E00
00003E00
00003E00
00003E00
00003E00
00003E00
ENDCHAR
STARTCHAR 0035
ENCODING 53
SWIDTH 572 0
DWIDTH 31 0
BBX 26 39 3 0
BITMAP
3FFFFE00
3FFFFE00
3FFFFE00
3FFFFE00
3FFFFE00
3C000000
3C000000
3C000000
3C000000
3C000000
7C000000
7C000000
7C000000
7C000000
7CFFC000
7FFFF000
7FFFF800
7FFFFC00
7F81FE00
7E007F00
3C003F00
00001F80
00000F80
00000F80
000007C0
000007C0
000007C0
000007C0
10000780
F8000F80
F8000F80
FC001F00
7E003F00
3F80FE00
3FFFFC00
1FFFF800
07FFF000
03FFE000
007F0000
ENDCHAR
STARTCHAR 0036
ENCODING 54
SWIDTH 627 0
DWIDTH 34 0
BBX 26 39 4 0
BITMAP
003F8000
01FFF000
07FFF800
0FFFFE00
1FFFFF00
3F807F00
3F001C00
7E000800
7C000000
F8000000
F8000000
F8000000
F8000000
F8000000
F83F8000
F8FFF000
FBFFF800
FFFFFE00
FFFBFF00
FF807F00
FE001F80
FC000F80
FC000FC0
F80007C0
F80007C0
F80007C0
F80007C0
F80007C0
F80007C0
F80007C0
7C000FC0
7E000F80
3F003F80
3F807F00
1FFFFE00
0FFFFC00
07FFF800
01FFE000
007F8000
ENDCHAR
STARTCHAR 0037
ENCODING 55
SWIDTH 516 0
DWIDTH 28 0
BBX 23 39 2 0
BITMAP
FFFFFE
FFFFFE
FFFFFE
FFFFFE
FFFFFE
00003E
00007C
00007C
0000F8
0000F8
0001F8
0001F0
0001F0
0003E0
0003E0
0007E0
0007C0
0007C0
000F80
000F80
001F80
001F00
001F00
003E00
003E00
007E00
007C00
007C00
00F800
00F800
01F800
01F000
01F000
03E000
03E000
07C000
07C000
0FC000
0F8000
ENDCHAR
STARTCHAR 0038
ENCODING 56
SWIDTH 590 0
DWIDTH 32 0
BBX 26 39 3 0
BITMAP
007F8000
03FFE000
07FFF800
0FFFFC00
1FFFFE00
3F807F00
3F003F00
3E001F00
7E001F80
7C000F80
7C000F80
7C000F80
7E001F80
3E001F00
3F003F00
1FC0FE00
1FFFFE00
0FFFFC00
07FFF800
0FFFFC00
1FFFFE00
3F807F00
7E001F80
7C001F80
7C000F80
FC000FC0
F80007C0
F80007C0
F80007C0
FC000FC0
7C000F80
7C001F80
7E001F80
3F807F00
1FFFFE00
0FFFFC00
07FFF800
03FFF000
007F8000
ENDCHAR
STARTCHAR 0039
ENCODING 57
SWIDTH 627 0
DWIDTH 34 0
BBX 27 39 3 0
BITMAP
003F8000
01FFF000
03FFF800
0FFFFE00
1FFFFF00
1FC07F00
3F001F80
7E000FC0
7C0007C0
7C0007C0
F80003E0
F80003E0
F80003E0
F80003E0
F80003E0
7C0007E0
7C0007E0
7E000FE0
3F001FE0
3F803FE0
1FFBFFE0
0FFFFBE0
07FFF3E0
01FFE3E0
007F03E0
000003E0
000003E0
000003E0
000003E0
000007C0
000007C0
04000FC0
0F001F80
1F807F00
1FFFFF00
0FFFFE00
07FFF800
01FFF000
007F8000
ENDCHAR
STARTCHAR 003A
ENCODING 58
SWIDTH 313 0
DWIDTH 17 0
BBX 5 21 6 4
BITMAP
F8
F8
F8
F8
F8
00
00
00
00
00
00
00
00
00
00
00
F8
F8
F8
F8
F8
ENDCHAR
STARTCHAR 003B
ENCODING 59
SWIDTH 313 0
DWIDTH 17 0
BBX 5 35 6 -7
BITMAP
F8
F8
F8
F8
F8
00
00
00
00
00
00
00
00
00
00
00
00
00
00
00
00
00
00
F8
F8
F8
F8
F8
F8
18
18
38
78
F0
E0
ENDCHAR
STARTCHAR 003C
ENCODING 60
SWIDTH 627 0
DWIDTH 34 0
BBX 15 26 8 3
BITMAP
0008
001C
003E
007E
00FC
01F8
03F0
07E0
0FC0
1F80
3F00
7E00
FC00
FC00
7E00
3F00
1F80
0FC0
07E0
03F0
01F8
00FC
007E
003E
001C
0008
ENDCHAR
STARTCHAR 003D
ENCODING 61
SWIDTH 756 0
DWIDTH 41 0
BBX 28 13 6 13
BITMAP
FFFFFFF0
FFFFFFF0
FFFFFFF0
FFFFFFF0
00000000
00000000
00000000
00000000
00000000
FFFFFFF0
FFFFFFF0
FFFFFFF0
FFFFFFF0
ENDCHAR
STARTCHAR 003E
ENCODING 62
SWIDTH 627 0
DWIDTH 34 0
BBX 16 25 10 3
BITMAP
1000
3800
7C00
7E00
3F00
1F80
0FC0
07E0
03F0
01F8
00FC
007E
003F
003E
00FC
01F8
03F0
07E0
0FC0
1F80
3F00
7E00
FC00
7800
3000
ENDCHAR
STARTCHAR 003F
ENCODING 63
SWIDTH 535 0
DWIDTH 29 0
BBX 23 39 3 0
BITMAP
00FE00
07FFC0
0FFFE0
1FFFF8
3FFFF8
7F01FC
7C007C
F8007E
F8003E
F8003E
00003E
00003E
00003E
00007E
00007C
0000FC
0001F8
0003F8
0007F0
001FE0
003F80
003F00
007E00
007C00
007C00
00F800
00F800
00F800
00F800
000000
000000
000000
000000
00F800
00F800
00F800
00F800
00F800
00F800
ENDCHAR
STARTCHAR 0040
ENCODING 64
SWIDTH 904 0
DWIDTH 49 0
BBX 41 41 4 -6
BITMAP
0000FFC00000
000FFFF80000
003FFFFE0000
007FFFFF8000
01FF807FC000
03FC000FE000
07F00003F000
0FC00001F800
0F800000FC00
1F0000007C00
1E0000003E00
3E0000001E00
3C007E001F00
7C01FFB80F00
7803FFF80F00
7807FFF80F00
780FC1F80F80
780F00F80F80
F81F00F80F80
F81F00780780
F81E00780F80
F81E00780F80
F81F00780F00
F80F00F80F00
780F81F81F00
780FFFFC3F00
7C07FFFFFE00
7C03FFFFFC00
3C00FF1FF800
3E000007E000
1F0000000000
1F0000000000
0F8000000000
07E000000000
07F000000000
03FC00080000
00FF80780000
007FFFFC0000
001FFFFC0000
0007FFF80000
0000FF800000
ENDCHAR
STARTCHAR 0041
ENCODING 65
SWIDTH 646 0
DWIDTH 35 0
BBX 33 39 1 0
BITMAP
0007F00000
0007F00000
000FF80000
000FF80000
000FF80000
001F7C0000
001F7C0000
001F7C0000
003E3E0000
003E3E0000
003E3E0000
007C1F0000
007C1F0000
007C1F0000
00F80F8000
00F80F8000
00F80F8000
01F007C000
01F007C000
01F007C000
03E003E000
03E003E000
03E003E000
07C001F000
07C001F000
07FFFFF000
0FFFFFF800
0FFFFFF800
0FFFFFF800
1FFFFFFC00
1F00007C00
1F00007C00
3E00003E00
3E00003E00
3E00003E00
7C00001F00
7C00001F00
7C00001F00
F800000F80
ENDCHAR
STARTCHAR 0042
ENCODING 66
SWIDTH 627 0
DWIDTH 34 0
BBX 28 39 4 0
BITMAP
FFFFE000
FFFFF800
FFFFFC00
FFFFFF00
FFFFFF00
F8003F80
F8000F80
F8000FC0
F80007C0
F80007C0
F80007C0
F80007C0
F80007C0
F8000FC0
F8000F80
F8003F80
FFFFFF00
FFFFFE00
FFFFFC00
FFFFFE00
FFFFFF80
F8001FC0
F8000FC0
F80007E0
F80003E0
F80001F0
F80001F0
F80001F0
F80001F0
F80001F0
F80003F0
F80003E0
F80007E0
F8001FE0
FFFFFFC0
FFFFFF80
FFFFFF00
FFFFFE00
FFFFF000
ENDCHAR
STARTCHAR 0043
ENCODING 67
SWIDTH 720 0
DWIDTH 39 0
BBX 35 39 2 0
BITMAP
0007FC0000
003FFFC000
00FFFFF000
03FFFFF800
07FFFFFC00
0FF801FE00
1FE0007F00
1F80003F80
3F00001F80
3E00000FC0
7E000007C0
7C000007E0
7C000003C0
FC00000000
F800000000
F800000000
F800000000
F800000000
F800000000
F800000000
F800000000
F800000000
F800000000
F800000000
F800000000
F800000000
7C000003C0
7C000007E0
7E000007C0
3E00000FC0
3F00001F80
1F80003F80
1FC0007F00
0FF801FE00
07FFFFFC00
03FFFFF800
00FFFFF000
003FFFC000
0007FE0000
ENDCHAR
STARTCHAR 0044
ENCODING 68
SWIDTH 683 0
DWIDTH 37 0
BBX 30 39 4 0
BITMAP
FFFFC000
FFFFF800
FFFFFE00
FFFFFF00
FFFFFF80
F8003FC0
F8000FE0
F80007F0
F80003F0
F80001F8
F80000F8
F80000F8
F80000FC
F800007C
F800007C
F800007C
F800007C
F800007C
F800007C
F800007C
F800007C
F800007C
F800007C
F800007C
F800007C
F800007C
F80000FC
F80000F8
F80001F8
F80001F8
F80003F0
F80007F0
F8000FE0
F8003FC0
FFFFFF80
FFFFFF00
FFFFFE00
FFFFF800
FFFFC000
ENDCHAR
STARTCHAR 0045
ENCODING 69
SWIDTH 572 0
DWIDTH 31 0
BBX 24 39 4 0
BITMAP
FFFFFF
FFFFFF
FFFFFF
FFFFFF
FFFFFF
F80000
F80000
F80000
F80000
F80000
F80000
F80000
F80000
F80000
F80000
F80000
F80000
FFFFF8
FFFFF8
FFFFF8
FFFFF8
FFFFF8
F80000
F80000
F80000
F80000
F80000
F80000
F80000
F80000
F80000
F80000
F80000
F80000
FFFFFF
FFFFFF
FFFFFF
FFFFFF
FFFFFF
ENDCHAR
STARTCHAR 0046
ENCODING 70
SWIDTH 516 0
DWIDTH 28 0
BBX 23 39 4 0
BITMAP
FFFFFE
FFFFFE
FFFFFE
FFFFFE
FFFFFE
F80000
F80000
F80000
F80000
F80000
F80000
F80000
F80000
F80000
F80000
F80000
F80000
FFFFE0
FFFFE0
FFFFE0
FFFFE0
FFFFE0
F80000
F80000
F80000
F80000
F80000
F80000
F80000
F80000
F80000
F80000
F80000
F80000
F80000
F80000
F80000
F80000
F80000
ENDCHAR
STARTCHAR 0047
ENCODING 71
SWIDTH 720 0
DWIDTH 39 0
BBX 35 39 2 0
BITMAP
0007FC0000
003FFF8000
00FFFFE000
03FFFFF800
07FFFFFC00
0FF801FE00
1FE0007F00
1F80003F00
3F00001F80
3E00000F80
7E00000F80
7C00000600
7C00000000
FC00000000
F800000000
F800000000
F800000000
F800000000
F800000000
F80003FFE0
F80003FFE0
F80003FFE0
F80003FFE0
F8000003E0
F8000003E0
F8000007E0
7C000007C0
7C000007C0
7E00000FC0
3E00000F80
3F00001F80
1F80003F00
1FC0007F00
0FF801FE00
07FFFFFC00
03FFFFF800
00FFFFE000
003FFFC000
0007FC0000
ENDCHAR
STARTCHAR 0048
ENCODING 72
SWIDTH 701 0
DWIDTH 38 0
BBX 30 39 4 0
BITMAP
F800007C
F800007C
F800007C
F800007C
F800007C
F800007C
F800007C
F800007C
F800007C
F800007C
F800007C
F800007C
F800007C
F800007C
F800007C
F800007C
F800007C
FFFFFFFC
FFFFFFFC
FFFFFFFC
FFFFFFFC
FFFFFFFC
F800007C
F800007C
F800007C
F800007C
F800007C
F800007C
F800007C
F800007C
F800007C
F800007C
F800007C
F800007C
F800007C
F800007C
F800007C
F800007C
F800007C
ENDCHAR
STARTCHAR 0049
ENCODING 73
SWIDTH 240 0
DWIDTH 13 0
BBX 5 39 4 0
BITMAP
F8
F8
F8
F8
F8
F8
F8
F8
F8
F8
F8
F8
F8
F8
F8
F8
F8
F8
F8
F8
F8
F8
F8
F8
F8
F8
F8
F8
F8
F8
F8
F8
F8
F8
F8
F8
F8
F8
F8
ENDCHAR
STARTCHAR 004A
ENCODING 74
SWIDTH 480 0
DWIDTH 26 0
BBX 21 39 0 0
BITMAP
000078
000078
000078
000078
000078
000078
000078
000078
000078
000078
000078
000078
000078
000078
000078
000078
000078
000078
000078
000078
000078
000078
000078
000078
000078
000078
000078
000078
000078
0000F8
3800F8
F800F8
7C01F8
7E03F0
3FFFF0
3FFFE0
0FFFC0
07FF80
01FE00
ENDCHAR
STARTCHAR 004B
ENCODING 75
SWIDTH 609 0
DWIDTH 33 0
BBX 29 39 4 0
BITMAP
F80007E0
F8000FC0
F8001F80
F8003F00
F8007F00
F8007E00
F800FC00
F801F800
F803F000
F807E000
F80FC000
F81F8000
F83F0000
F87E0000
F8FC0000
F9F80000
FBF00000
FFE00000
FFC00000
FFE00000
FFF00000
FBF00000
F9F80000
F8FC0000
F87E0000
F83F0000
F81F8000
F80FC000
F807E000
F803F000
F801F800
F800FC00
F8007E00
F8003F00
F8001F80
F8000FC0
F8000FE0
F80007F0
F80003F8
ENDCHAR
STARTCHAR 004C
ENCODING 76
SWIDTH 516 0
DWIDTH 28 0
BBX 23 39 4 0
BITMAP
F80000
F80000
F80000
F80000
F80000
F80000
F80000
F80000
F80000
F80000
F80000
F80000
F80000
F80000
F80000
F80000
F80000
F80000
F80000
F80000
F80000
F80000
F80000
F80000
F80000
F80000
F80000
F80000
F80000
F80000
F80000
F80000
F80000
F80000
FFFFFE
FFFFFE
FFFFFE
FFFFFE
FFFFFE
ENDCHAR
STARTCHAR 004D
ENCODING 77
SWIDTH 849 0
DWIDTH 46 0
BBX 38 39 4 0
BITMAP
F00000007C
F80000007C
F8000000FC
FC000000FC
FC000001FC
FE000001FC
FE000003FC
FF000003FC
FF000003FC
FF800007FC
FF800007FC
F7C0000FFC
F7C0000FFC
F3E0001F7C
F3E0001F7C
F1F0003E7C
F1F0003E7C
F0F0007C7C
F0F8007C7C
F0F800F87C
F07C00F87C
F07C01F07C
F03E01F07C
F03E03E07C
F01F03E07C
F01F03C07C
F00F87C07C
F00F87C07C
F007CF807C
F007CF807C
F003FF007C
F003FF007C
F001FE007C
F001FE007C
F001FC007C
F000FC007C
F000F8007C
F00078007C
F00070007C
ENDCHAR
STARTCHAR 004E
ENCODING 78
SWIDTH 701 0
DWIDTH 38 0
BBX 30 39 4 0
BITMAP
F800007C
FC00007C
FC00007C
FE00007C
FF00007C
FF00007C
FF80007C
FFC0007C
FFC0007C
FFE0007C
FBF0007C
F9F0007C
F9F8007C
F8FC007C
F87C007C
F87E007C
F83F007C
F81F007C
F81F807C
F80FC07C
F807C07C
F807E07C
F803F07C
F801F07C
F801F87C
F800FC7C
F8007C7C
F8007E7C
F8003F7C
F8001F7C
F8001FFC
F8000FFC
F80007FC
F80007FC
F80003FC
F80001FC
F80001FC
F80000FC
F800007C
ENDCHAR
STARTCHAR 004F
ENCODING 79
SWIDTH 738 0
DWIDTH 40 0
BBX 36 39 2 0
BITMAP
0007FE0000
003FFFC000
00FFFFF000
03FFFFF800
07FFFFFC00
0FF801FE00
1FE0007F00
1F80003F80
3F00001F80
3E00000FC0
7E000007C0
7C000007E0
7C000003E0
FC000003E0
F8000003F0
F8000001F0
F8000001F0
F8000001F0
F8000001F0
F8000001F0
F8000001F0
F8000001F0
F8000001F0
F8000001F0
F8000003F0
FC000003E0
7C000003E0
7C000007E0
7E000007C0
3E00000FC0
3F00001F80
1F80003F80
1FE0007F00
0FF801FE00
07FFFFFC00
03FFFFF800
00FFFFF000
003FFFC000
0007FE0000
ENDCHAR
STARTCHAR 0050
ENCODING 80
SWIDTH 609 0
DWIDTH 33 0
BBX 28 39 4 0
BITMAP
FFFFE000
FFFFFC00
FFFFFE00
FFFFFF80
FFFFFF80
F8001FC0
F80007E0
F80007E0
F80003E0
F80003E0
F80001F0
F80001F0
F80001F0
F80001F0
F80001F0
F80003E0
F80003E0
F80007E0
F8000FC0
F8003FC0
FFFFFF80
FFFFFF00
FFFFFE00
FFFFF800
FFFF0000
F8000000
F8000000
F8000000
F8000000
F8000000
F8000000
F8000000
F8000000
F8000000
F8000000
F8000000
F8000000
F8000000
F8000000
ENDCHAR
STARTCHAR 0051
ENCODING 81
SWIDTH 738 0
DWIDTH 40 0
BBX 36 39 2 0
BITMAP
0007FE0000
003FFFC000
00FFFFF000
03FFFFF800
07FFFFFC00
0FF801FE00
1FE0007F00
1F80003F80
3F00001F80
3E00000FC0
7E000007C0
7C000007E0
7C000003E0
FC000003E0
F8000003F0
F8000001F0
F8000001F0
F8000001F0
F8000001F0
F8000001F0
F8000001F0
F8000001F0
F8000001F0
F8000001F0
F8000003F0
FC000003E0
7C0000C3E0
7C0001E7E0
7E0003F7C0
3E0001FFC0
3F0000FF80
1F80007F80
1FE0007F00
0FF801FF80
07FFFFFFC0
03FFFFFFE0
00FFFFF3E0
003FFFC1C0
0007FE0080
ENDCHAR
STARTCHAR 0052
ENCODING 82
SWIDTH 646 0
DWIDTH 35 0
BBX 28 39 4 0
BITMAP
FFFFE000
FFFFFC00
FFFFFE00
FFFFFF80
FFFFFF80
F8001FC0
F80007E0
F80007E0
F80003E0
F80003E0
F80001F0
F80001F0
F80001F0
F80001F0
F80001F0
F80003E0
F80003E0
F80007E0
F8000FC0
F8003FC0
FFFFFF80
FFFFFF00
FFFFFE00
FFFFF800
FFFFF800
F800FC00
F8007C00
F8007E00
F8003E00
F8003F00
F8001F00
F8001F80
F8000F80
F8000FC0
F80007C0
F80007E0
F80003E0
F80003F0
F80001F0
ENDCHAR
STARTCHAR 0053
ENCODING 83
SWIDTH 627 0
DWIDTH 34 0
BBX 30 39 2 0
BITMAP
001FE000
00FFFC00
03FFFF00
07FFFFC0
0FFFFFE0
1FC01FE0
3F8007F0
3F0001F8
3E0001F8
7E0000FC
7E0000FC
7E000060
3E000000
3F000000
3F800000
1FF00000
0FFF0000
07FFE000
01FFFE00
007FFF80
0007FFE0
0000FFF0
00000FF8
000003F8
000000FC
0000007C
0000007C
7800007C
F800007C
FC00007C
7E00007C
7F0000FC
3F8001F8
1FE007F0
1FFFFFF0
07FFFFE0
03FFFF80
00FFFE00
001FF000
ENDCHAR
STARTCHAR 0054
ENCODING 84
SWIDTH 609 0
DWIDTH 33 0
BBX 31 39 1 0
BITMAP
FFFFFFFE
FFFFFFFE
FFFFFFFE
FFFFFFFE
FFFFFFFE
0007C000
0007C000
0007C000
0007C000
0007C000
0007C000
0007C000
0007C000
0007C000
0007C000
0007C000
0007C000
0007C000
0007C000
0007C000
0007C000
0007C000
0007C000
0007C000
0007C000
0007C000
0007C000
0007C000
0007C000
0007C000
0007C000
0007C000
0007C000
0007C000
0007C000
0007C000
0007C000
0007C000
0007C000
ENDCHAR
STARTCHAR 0055
ENCODING 85
SWIDTH 701 0
DWIDTH 38 0
BBX 31 39 4 0
BITMAP
F800003E
F800003E
F800003E
F800003E
F800003E
F800003E
F800003E
F800003E
F800003E
F800003E
F800003E
F800003E
F800003E
F800003E
F800003E
F800003E
F800003E
F800003E
F800003E
F800003E
F800003E
F800003E
F800003E
F800003E
F800003E
F800003C
F800007C
F800007C
FC00007C
7C0000FC
7E0001F8
7F0001F8
3F8007F0
1FE00FF0
0FFFFFE0
07FFFFC0
03FFFF00
00FFFE00
001FF000
ENDCHAR
STARTCHAR 0056
ENCODING 86
SWIDTH 609 0
DWIDTH 33 0
BBX 33 39 0 0
BITMAP
F800000F80
7C00000F80
7C00001F00
7C00001F00
3E00001F00
3E00003E00
3E00003E00
1F00003E00
1F00007C00
1F00007C00
0F80007C00
0F8000F800
0F8000F800
07C000F800
07C001F000
07C001F000
03E003F000
03E003E000
03E003E000
01F007E000
01F007C000
01F007C000
00F80FC000
00F80F8000
00FC0F8000
007C1F8000
007C1F0000
007E1F0000
003E3F0000
003E3E0000
003F3E0000
001F7E0000
001F7C0000
001FFC0000
000FFC0000
000FF80000
000FF80000
0007F80000
0007F00000
ENDCHAR
STARTCHAR 0057
ENCODING 87
SWIDTH 941 0
DWIDTH 51 0
BBX 49 39 1 0
BITMAP
F80003E0000F80
F80003F0000F80
7C0007F0000F80
7C0007F0000F80
7C0007F8001F00
7C0007F8001F00
3E000FF8001F00
3E000FF8003E00
3E000FFC003E00
1F001F7C003E00
1F001F7C003E00
1F001F3C007C00
1F001F3E007C00
0F803E3E007C00
0F803E3E00F800
0F803E1F00F800
07C03C1F00F800
07C07C1F00F800
07C07C0F01F000
07C07C0F81F000
03E0F80F81F000
03E0F80F83E000
03E0F807C3E000
01E0F007C3E000
01F1F007C3C000
01F1F003C7C000
01F1F003E7C000
00FBE003E7C000
00FBE003E78000
00FBE001FF8000
007BC001FF8000
007FC001FF0000
007FC000FF0000
007FC000FF0000
003F8000FF0000
003F8000FE0000
003F80007E0000
001F00007E0000
001F00007C0000
ENDCHAR
STARTCHAR 0058
ENCODING 88
SWIDTH 627 0
DWIDTH 34 0
BBX 32 39 1 0
BITMAP
FC00003F
7E00007E
3E0000FC
3F0000F8
1F8001F8
0F8003F0
0FC003E0
07E007E0
03E00FC0
03F00F80
01F81F80
00F83F00
00FC3E00
007E7E00
003EFC00
003FF800
001FF800
000FF000
000FE000
0007E000
000FF000
001FF000
001FF800
003FFC00
007E7C00
007C7E00
00FC3F00
01F81F00
01F01F80
03F00FC0
07E007C0
07C007E0
0FC003F0
1F8001F0
1F0001F8
3F0000FC
7E00007C
7C00007E
FC00003F
ENDCHAR
STARTCHAR 0059
ENCODING 89
SWIDTH 572 0
DWIDTH 31 0
BBX 31 39 0 0
BITMAP
FC00007E
7C00007C
7E0000FC
3F0001F8
1F0001F8
1F8003F0
0F8003E0
0FC007E0
07E007C0
07E00FC0
03F01F80
01F01F00
01F83F00
00F83E00
00FC7E00
007E7C00
007EFC00
003FF800
001FF000
001FF000
000FE000
000FE000
0007C000
0007C000
0007C000
0007C000
0007C000
0007C000
0007C000
0007C000
0007C000
0007C000
0007C000
0007C000
0007C000
0007C000
0007C000
0007C000
0007C000
ENDCHAR
STARTCHAR 005A
ENCODING 90
SWIDTH 627 0
DWIDTH 34 0
BBX 28 39 3 0
BITMAP
7FFFFFF0
7FFFFFF0
7FFFFFE0
7FFFFFE0
7FFFFFC0
00000FC0
00001F80
00001F00
00003F00
00007E00
00007E00
0000FC00
0001F800
0001F800
0003F000
0003F000
0007E000
000FC000
000FC000
001F8000
001F0000
003F0000
007E0000
007E0000
00FC0000
01F80000
01F80000
03F00000
03F00000
07E00000
0FC00000
0FC00000
1F800000
1F800000
3FFFFFF0
7FFFFFF0
7FFFFFF0
FFFFFFF0
FFFFFFF0
ENDCHAR
STARTCHAR 005B
ENCODING 91
SWIDTH 406 0
DWIDTH 22 0
BBX 10 60 8 -12
BITMAP
FFC0
FFC0
FFC0
FFC0
F000
F000
F000
F000
F000
F000
F000
F000
F000
F000
F000
F000
F000
F000
F000
F000
F000
F000
F000
F000
F000
F000
F000
F000
F000
F000
F000
F000
F000
F000
F000
F000
F000
F000
F000
F000
F000
F000
F000
F000
F000
F000
F000
F000
F000
F000
F000
F000
F000
F000
F000
F000
FFC0
FFC0
FFC0
FFC0
ENDCHAR
STARTCHAR 005C
ENCODING 92
SWIDTH 406 0
DWIDTH 22 0
BBX 15 39 3 0
BITMAP
F800
7C00
7C00
7C00
7C00
3E00
3E00
3E00
1E00
1F00
1F00
1F00
0F00
0F80
0F80
0F80
07C0
07C0
07C0
07C0
03E0
03E0
03E0
01E0
01F0
01F0
01F0
00F0
00F8
00F8
00F8
007C
007C
007C
007C
003E
003E
003E
003E
ENDCHAR
STARTCHAR 005D
ENCODING 93
SWIDTH 406 0
DWIDTH 22 0
BBX 11 60 4 -12
BITMAP
FFE0
FFE0
FFE0
FFE0
03E0
03E0
03E0
03E0
03E0
03E0
03E0
03E0
03E0
03E0
03E0
03E0
03E0
03E0
03E0
03E0
03E0
03E0
03E0
03E0
03E0
03E0
03E0
03E0
03E0
03E0
03E0
03E0
03E0
03E0
03E0
03E0
03E0
03E0
03E0
03E0
03E0
03E0
03E0
03E0
03E0
03E0
03E0
03E0
03E0
03E0
03E0
03E0
03E0
03E0
03E0
03E0
FFE0
FFE0
FFE0
FFE0
ENDCHAR
STARTCHAR 005E
ENCODING 94
SWIDTH 664 0
DWIDTH 36 0
BBX 25 16 6 24
BITMAP
00080000
001C0000
003E0000
007F0000
00FF8000
01FFC000
03F7E000
07E3F000
0FC1F800
1F80FC00
3F007E00
7E003F00
FC001F80
F8000F80
70000700
20000200
ENDCHAR
STARTCHAR 005F
ENCODING 95
SWIDTH 664 0
DWIDTH 36 0
BBX 36 4 0 -6
BITMAP
FFFFFFFFF0
FFFFFFFFF0
FFFFFFFFF0
FFFFFFFFF0
ENDCHAR
STARTCHAR 0060
ENCODING 96
SWIDTH 498 0
DWIDTH 27 0
BBX 7 9 9 43
BITMAP
F0
78
78
38
3C
3C
1E
1E
1E
ENDCHAR
STARTCHAR 0061
ENCODING 97
SWIDTH 553 0
DWIDTH 30 0
BBX 25 29 2 0
BITMAP
007FC000
03FFF000
07FFFC00
0FFFFE00
1FFFFF00
3F803F00
3E001F80
7E000F80
0C000F80
00000F80
00000F80
0003FF80
007FFF80
07FFFF80
0FFFFF80
3FFC0F80
7F800F80
7E000F80
FC000F80
F8000F80
F8001F80
F8001F80
F8003F80
7C00FF80
7F03F780
3FFFF780
1FFFC780
0FFF8780
03FC0000
ENDCHAR
STARTCHAR 0062
ENCODING 98
SWIDTH 609 0
DWIDTH 33 0
BBX 26 39 4 0
BITMAP
F8000000
F8000000
F8000000
F8000000
F8000000
F8000000
F8000000
F8000000
F8000000
F8000000
F87F8000
F9FFE000
FBFFF800
FFFFFC00
FFF7FE00
FF007F00
FE003F00
FC001F80
F8000F80
F8000FC0
F80007C0
F00007C0
F00007C0
F00007C0
F00007C0
F00007C0
F00007C0
F00007C0
F80007C0
F8000FC0
F8000F80
FC001F80
FE003F00
FF007F00
FFF3FE00
FFFFFC00
F7FFF800
F1FFF000
F07F8000
ENDCHAR
STARTCHAR 0063
ENCODING 99
SWIDTH 553 0
DWIDTH 30 0
BBX 26 29 2 0
BITMAP
003FC000
01FFF800
03FFFC00
0FFFFF00
0FFFFF80
1FC03F80
3F000FC0
3E0007C0
7E0007C0
7C000000
7C000000
FC000000
F8000000
F8000000
F8000000
F8000000
F8000000
FC000000
7C000000
7C000000
7E000780
3E0007C0
3F000FC0
1FC03F80
0FFFFF80
07FFFF00
03FFFC00
01FFF800
003FC000
ENDCHAR
STARTCHAR 0064
ENCODING 100
SWIDTH 609 0
DWIDTH 33 0
BBX 27 39 2 0
BITMAP
000003E0
000003E0
000003E0
000003E0
000003E0
000003E0
000003E0
000003E0
000003E0
000003E0
007F83E0
01FFE3E0
07FFFBE0
0FFFFFE0
1FF9FFE0
1FC03FE0
3F000FE0
3E0007E0
7E0007E0
7C0003E0
7C0003E0
FC0003E0
F80003E0
F80003E0
F80003E0
F80003E0
F80003E0
FC0003E0
7C0003E0
7C0003E0
7E0007E0
3E000FE0
3F000FE0
1F803FE0
1FF9FFE0
0FFFFFE0
07FFFBE0
01FFE3E0
003F83E0
ENDCHAR
STARTCHAR 0065
ENCODING 101
SWIDTH 590 0
DWIDTH 32 0
BBX 28 29 2 0
BITMAP
003FC000
01FFF800
03FFFE00
07FFFF00
0FF9FF80
1F801F80
3F000FC0
3E0007C0
7C0003E0
7C0003E0
7C0003E0
F80001F0
FFFFFFF0
FFFFFFF0
FFFFFFF0
FFFFFFF0
F8000000
FC000000
7C000000
7C000000
7E000380
3E0007E0
3F000FE0
1FC01FC0
0FFFFF80
07FFFF00
03FFFE00
01FFF800
003FC000
ENDCHAR
STARTCHAR 0066
ENCODING 102
SWIDTH 369 0
DWIDTH 20 0
BBX 17 39 2 0
BITMAP
007F80
01FF80
03FF80
03FF80
07E000
07C000
07C000
078000
078000
078000
FFFF80
FFFF80
FFFF80
FFFF80
078000
078000
078000
078000
078000
078000
078000
078000
078000
078000
078000
078000
078000
078000
078000
078000
078000
078000
078000
078000
078000
078000
078000
078000
078000
ENDCHAR
STARTCHAR 0067
ENCODING 103
SWIDTH 609 0
DWIDTH 33 0
BBX 27 42 2 -13
BITMAP
007F83E0
01FFF3E0
07FFFBE0
0FFFFFE0
1FF9FFE0
1FC03FE0
3F000FE0
3E0007E0
7E0007E0
7C0003E0
7C0003E0
FC0003E0
F80003E0
F80003E0
F80003E0
F80003E0
F80003E0
FC0003E0
7C0003E0
7C0003E0
7E0007E0
3E000FE0
3F000FE0
1F803FE0
1FF9FFE0
0FFFFFE0
07FFFBE0
01FFE3E0
003F83E0
000003E0
000003E0
000003E0
000007C0
020007C0
0E000FC0
3F001FC0
1FC03F80
1FFFFF00
0FFFFF00
07FFFE00
01FFF800
003FC000
ENDCHAR
STARTCHAR 0068
ENCODING 104
SWIDTH 609 0
DWIDTH 33 0
BBX 25 39 4 0
BITMAP
F0000000
F0000000
F0000000
F0000000
F0000000
F0000000
F0000000
F0000000
F0000000
F0000000
F03F8000
F0FFF000
F3FFF800
F7FFFC00
FFFFFE00
FF807F00
FE003F00
FC001F80
FC001F80
F8000F80
F8000F80
F8000F80
F8000F80
F8000780
F8000780
F8000780
F8000780
F8000780
F8000780
F8000780
F8000780
F8000780
F8000780
F8000780
F8000780
F8000780
F8000780
F8000780
F8000780
ENDCHAR
STARTCHAR 0069
ENCODING 105
SWIDTH 240 0
DWIDTH 13 0
BBX 5 39 4 0
BITMAP
F8
F8
F8
F8
F8
00
00
00
00
00
F8
F8
F8
F8
F8
F8
F8
F8
F8
F8
F8
F8
F8
F8
F8
F8
F8
F8
F8
F8
F8
F8
F8
F8
F8
F8
F8
F8
F8
ENDCHAR
STARTCHAR 006A
ENCODING 106
SWIDTH 258 0
DWIDTH 14 0
BBX 11 52 -1 -13
BITMAP
03E0
03E0
03E0
03E0
03E0
0000
0000
0000
0000
0000
03E0
03E0
03E0
03E0
03E0
03E0
03E0
03E0
03E0
03E0
03E0
03E0
03E0
03E0
03E0
03E0
03E0
03E0
03E0
03E0
03E0
03E0
03E0
03E0
03E0
03E0
03E0
03E0
03E0
03E0
03E0
03E0
03E0
03E0
03E0
03E0
07E0
FFE0
FFC0
FFC0
FF80
FE00
ENDCHAR
STARTCHAR 006B
ENCODING 107
SWIDTH 516 0
DWIDTH 28 0
BBX 24 39 4 0
BITMAP
F80000
F80000
F80000
F80000
F80000
F80000
F80000
F80000
F80000
F80000
F800FE
F800FC
F801F8
F803F0
F807E0
F80FC0
F81F80
F83F80
F87F00
F87E00
F8FC00
F9F800
FBF000
FFE000
FFC000
FFE000
FBF000
F9F800
F8FC00
F87E00
F83F00
F81F80
F80FC0
F807E0
F803F0
F801F8
F800FC
F8007E
F8007F
ENDCHAR
STARTCHAR 006C
ENCODING 108
SWIDTH 240 0
DWIDTH 13 0
BBX 5 39 4 0
BITMAP
F8
F8
F8
F8
F8
F8
F8
F8
F8
F8
F8
F8
F8
F8
F8
F8
F8
F8
F8
F8
F8
F8
F8
F8
F8
F8
F8
F8
F8
F8
F8
F8
F8
F8
F8
F8
F8
F8
F8
ENDCHAR
STARTCHAR 006D
ENCODING 109
SWIDTH 867 0
DWIDTH 47 0
BBX 40 29 4 0
BITMAP
F07F003F80
F1FFC0FFE0
F7FFE1FFF8
FFFFF3FFFC
FFCFFFE3FC
FE01FF80FE
FC00FF007E
F800FE003E
F8007C003F
F8007C001F
F8007C001F
F8007C001F
F8007C001F
F8007C001F
F8007C001F
F8007C001F
F8007C001F
F8007C001F
F8007C001F
F8007C001F
F8007C001F
F8007C001F
F8007C001F
F8007C001F
F8007C001F
F8007C001F
F8007C001F
F8007C001F
F8007C001F
ENDCHAR
STARTCHAR 006E
ENCODING 110
SWIDTH 609 0
DWIDTH 33 0
BBX 25 29 4 0
BITMAP
F03F8000
F0FFF000
F3FFF800
F7FFFC00
FFFFFE00
FF807F00
FE003F00
FC001F80
FC001F80
F8000F80
F8000F80
F8000F80
F8000F80
F8000780
F8000780
F8000780
F8000780
F8000780
F8000780
F8000780
F8000780
F8000780
F8000780
F8000780
F8000780
F8000780
F8000780
F8000780
F8000780
ENDCHAR
STARTCHAR 006F
ENCODING 111
SWIDTH 609 0
DWIDTH 33 0
BBX 28 29 2 0
BITMAP
003FC000
01FFF800
03FFFE00
07FFFF00
0FFFFF80
1FC01FC0
3F000FC0
3E0007E0
7E0003E0
7C0003F0
7C0001F0
FC0001F0
F80001F0
F80001F0
F80001F0
F80001F0
F80001F0
FC0001F0
7C0001F0
7C0003F0
7E0003E0
3E0007E0
3F000FC0
1FC01FC0
0FFFFF80
07FFFF00
03FFFE00
01FFF800
003FC000
ENDCHAR
STARTCHAR 0070
ENCODING 112
SWIDTH 609 0
DWIDTH 33 0
BBX 26 41 4 -12
BITMAP
F03F8000
F1FFE000
F3FFF800
F7FFFC00
FFF7FE00
FF007F00
FE003F00
FC001F80
F8000F80
F8000FC0
F80007C0
F00007C0
F00007C0
F00007C0
F00007C0
F00007C0
F00007C0
F00007C0
F80007C0
F8000FC0
F8000F80
FC001F80
FE003F00
FF007F00
FFF3FE00
FFFFFC00
FBFFF800
F9FFF000
F83F8000
F8000000
F8000000
F8000000
F8000000
F8000000
F8000000
F8000000
F8000000
F8000000
F8000000
F8000000
F8000000
ENDCHAR
STARTCHAR 0071
ENCODING 113
SWIDTH 609 0
DWIDTH 33 0
BBX 27 41 2 -12
BITMAP
007F83E0
01FFF3E0
07FFFBE0
0FFFFFE0
1FF9FFE0
1FC03FE0
3F000FE0
3E0007E0
7E0007E0
7C0003E0
7C0003E0
FC0003E0
F80003E0
F80003E0
F80003E0
F80003E0
F80003E0
FC0003E0
7C0003E0
7C0003E0
7E0007E0
3E000FE0
3F000FE0
1F803FE0
1FF9FFE0
0FFFFFE0
07FFFBE0
01FFE3E0
003F83E0
000003E0
000003E0
000003E0
000003E0
000003E0
000003E0
000003E0
000003E0
000003E0
000003E0
000003E0
000003E0
ENDCHAR
STARTCHAR 0072
ENCODING 114
SWIDTH 369 0
DWIDTH 20 0
BBX 15 29 4 0
BITMAP
F07E
F1FE
F3FE
F7FE
FFFE
FF80
FE00
FC00
FC00
F800
F800
F800
F800
F800
F800
F800
F800
F800
F800
F800
F800
F800
F800
F800
F800
F800
F800
F800
F800
ENDCHAR
STARTCHAR 0073
ENCODING 115
SWIDTH 535 0
DWIDTH 29 0
BBX 25 29 2 0
BITMAP
00FF0000
07FFE000
0FFFF800
1FFFFC00
3FC3FE00
3E007F00
7C003F00
7C001F00
7C001E00
7C000000
7F000000
3FE00000
1FFE0000
07FFC000
01FFF800
003FFC00
0003FE00
00007F00
00001F00
00001F00
78000F80
FC001F00
7E001F00
7F003F00
3FE1FE00
1FFFFE00
0FFFFC00
03FFF000
007F8000
ENDCHAR
STARTCHAR 0074
ENCODING 116
SWIDTH 406 0
DWIDTH 22 0
BBX 19 37 1 -1
BITMAP
07C000
07C000
07C000
07C000
07C000
07C000
07C000
07C000
FFFFE0
FFFFE0
FFFFE0
FFFFE0
07C000
07C000
07C000
07C000
07C000
07C000
07C000
07C000
07C000
07C000
07C000
07C000
07C000
07C000
07C000
07C000
07C000
07C000
03E000
03F000
03FC20
01FFE0
01FFE0
007FE0
001FE0
ENDCHAR
STARTCHAR 0075
ENCODING 117
SWIDTH 609 0
DWIDTH 33 0
BBX 26 29 3 0
BITMAP
F80007C0
F80007C0
F80007C0
F80007C0
F80007C0
F80007C0
F80007C0
F80007C0
F80007C0
F80007C0
F80007C0
F80007C0
F80007C0
F80007C0
F80007C0
F80007C0
F80007C0
F80007C0
FC0007C0
7C000FC0
7C000FC0
7E001FC0
3F003FC0
3F807FC0
1FFFFFC0
1FFFFBC0
0FFFF3C0
03FFC3C0
00FF03C0
ENDCHAR
STARTCHAR 0076
ENCODING 118
SWIDTH 516 0
DWIDTH 28 0
BBX 26 29 1 0
BITMAP
F80007C0
7C0007C0
7C000F80
7C000F80
3E000F80
3E001F00
3E001F00
1F001E00
1F003E00
0F003E00
0F803C00
0F807C00
07807C00
07C07800
07C0F800
03E0F800
03E1F000
03E1F000
01F1E000
01F3E000
00F3E000
00FBC000
00FFC000
007FC000
007F8000
007F8000
003F8000
003F0000
003F0000
ENDCHAR
STARTCHAR 0077
ENCODING 119
SWIDTH 775 0
DWIDTH 42 0
BBX 40 29 1 0
BITMAP
F8003C001F
78003E001F
7C007E001E
7C007E003E
7C007F003E
3E00FF003C
3E00FF007C
3E00FF807C
1E01F78078
1F01E780F8
1F01E780F8
0F03E3C0F8
0F83C3C1F0
0F83C3C1F0
0787C3E1F0
07C781E1E0
07C781E3E0
07C781F3E0
03EF00F3C0
03EF00F7C0
03EF00FFC0
01FE007F80
01FE007F80
01FE007F80
00FC003F80
00FC003F00
00FC003F00
007C001F00
0078001E00
ENDCHAR
STARTCHAR 0078
ENCODING 120
SWIDTH 535 0
DWIDTH 29 0
BBX 27 29 1 0
BITMAP
FC0007E0
7E000FC0
3E000F80
3F001F80
1F803F00
0FC07E00
07C07C00
07E0F800
03F1F800
01FBF000
00FBE000
007FC000
007FC000
003F8000
001F0000
003F8000
007FC000
00FFE000
00FBE000
01F1F000
03F1F800
07E0FC00
0FC07E00
0F803E00
1F803F00
3F001F80
7E000FC0
7C0007C0
FC0007E0
ENDCHAR
STARTCHAR 0079
ENCODING 121
SWIDTH 535 0
DWIDTH 29 0
BBX 27 42 1 -13
BITMAP
F80003E0
F80003E0
7C0003E0
7C0007C0
3E0007C0
3E000780
3E000F80
1F000F80
1F001F00
0F801F00
0F801F00
0F803E00
07C03E00
07C03C00
03E07C00
03E07C00
01E0F800
01F0F800
01F0F000
00F9F000
00F9F000
0079E000
007FE000
007FE000
003FC000
003FC000
001F8000
001F8000
001F8000
000F0000
001F0000
001F0000
003E0000
003E0000
003C0000
007C0000
007C0000
00780000
00F80000
00F80000
01F00000
01F00000
ENDCHAR
STARTCHAR 007A
ENCODING 122
SWIDTH 535 0
DWIDTH 29 0
BBX 26 29 1 0
BITMAP
3FFFFFC0
3FFFFF80
3FFFFF00
3FFFFF00
00003E00
00007C00
0000F800
0001F800
0001F000
0003E000
0007C000
000FC000
000F8000
001F0000
003E0000
003E0000
007C0000
00F80000
01F00000
01F00000
03E00000
07C00000
0F800000
0F800000
1F000000
3FFFFF80
7FFFFF80
7FFFFF80
FFFFFF80
ENDCHAR
STARTCHAR 007B
ENCODING 123
SWIDTH 424 0
DWIDTH 23 0
BBX 13 60 8 -12
BITMAP
01F8
07F8
0FF8
1FF8
1FF8
1F00
1E00
1E00
1E00
1E00
1E00
1E00
1E00
1E00
1E00
1E00
1E00
1E00
1E00
1E00
1E00
1E00
1E00
1E00
1E00
3E00
7E00
7C00
FC00
F800
F800
FC00
7E00
3E00
3E00
1E00
1E00
1E00
1E00
1E00
1E00
1E00
1E00
1E00
1E00
1E00
1E00
1E00
1E00
1E00
1E00
1E00
1E00
1F00
1F00
1FF8
0FF8
0FF8
03F8
0078
ENDCHAR
STARTCHAR 007C
ENCODING 124
SWIDTH 276 0
DWIDTH 15 0
BBX 5 39 5 0
BITMAP
F8
F8
F8
F8
F8
F8
F8
F8
F8
F8
F8
F8
F8
F8
F8
F8
F8
F8
F8
F8
F8
F8
F8
F8
F8
F8
F8
F8
F8
F8
F8
F8
F8
F8
F8
F8
F8
F8
F8
ENDCHAR
STARTCHAR 007D
ENCODING 125
SWIDTH 424 0
DWIDTH 23 0
BBX 14 60 2 -12
BITMAP
FC00
FF00
FF80
FFC0
FFC0
07C0
03E0
03E0
03E0
03E0
03E0
03E0
03E0
03E0
03E0
03E0
03E0
03E0
03E0
03E0
03E0
03E0
03E0
03E0
03E0
03E0
03F0
01F8
00F8
00FC
00FC
01F8
01F0
03F0
03E0
03E0
03E0
03E0
03E0
03E0
03E0
03E0
03E0
03E0
03E0
03E0
03E0
03E0
03E0
03E0
03E0
03E0
03E0
03C0
07C0
FFC0
FFC0
FF80
FF00
F000
ENDCHAR
STARTCHAR 007E
ENCODING 126
SWIDTH 683 0
DWIDTH 37 0
BBX 25 10 6 12
BITMAP
0F800000
3FE00F00
7FF80F80
7FFE0F80
FFFF9F80
FCFFFF00
F83FFF00
F80FFF00
F803FE00
0000F800
ENDCHAR
STARTCHAR 00A0
ENCODING 160
SWIDTH 203 0
DWIDTH 11 0
BBX 0 0 0 0
BITMAP
ENDCHAR
STARTCHAR 00A1
ENCODING 161
SWIDTH 332 0
DWIDTH 18 0
BBX 5 39 6 -10
BITMAP
F8
F8
F8
F8
F8
00
00
00
00
00
F8
F8
F8
F8
F8
F8
F8
F8
F8
F8
F8
F8
F8
F8
F8
F8
F8
F8
F8
F8
F8
F8
F8
F8
F8
F8
F8
F8
F8
ENDCHAR
STARTCHAR 00A2
ENCODING 162
SWIDTH 553 0
DWIDTH 30 0
BBX 27 41 2 -2
BITMAP
000F0000
000F0000
000F0000
000F0000
000F0000
003FC000
01FFF800
03FFFE00
0FFFFF00
0FFFFF80
1FC03F80
3F000FC0
3E0007C0
7E0007C0
7C000200
7C000000
FC000000
F8000000
F8000000
F8000000
F8000000
F8000000
F8000000
FC000000
7C000000
7C000000
7C000200
7E0007E0
3F000FC0
3F801FC0
1FC03F80
0FFFFF00
07FFFE00
03FFFC00
00FFF000
001F8000
000F0000
000F0000
000F0000
000F0000
000F0000
ENDCHAR
STARTCHAR 00A3
ENCODING 163
SWIDTH 572 0
DWIDTH 31 0
BBX 27 39 2 0
BITMAP
0007E000
001FFC00
007FFE00
00FFFF00
01FFFF80
01F81F80
03F00FC0
03E007C0
03E003E0
03E003E0
03E00300
03E00000
03E00000
03E00000
03E00000
03E00000
03E00000
FFFFF000
FFFFF000
FFFFF000
FFFFF000
FFFFF000
03E00000
03E00000
03E00000
03E00000
03E00000
03E00000
03E00000
03E00000
03E00000
03E00000
07E00000
0FE00000
FFFFFF80
FFFFFF80
FFFFFF80
FFFFFF80
FFFFFF80
ENDCHAR
STARTCHAR 00A4
ENCODING 164
SWIDTH 646 0
DWIDTH 35 0
BBX 32 33 2 3
BITMAP
00000008
3000001C
780FE03E
FC7FFC7F
7EFFFFFE
3FFFFFFC
1FFC3FF8
0FE00FF0
0F8003F0
1F0001F0
1F0000F8
3E0000F8
3C000078
3C00007C
3C00007C
7C00003C
7C00003C
7C00003C
3C00007C
3C00007C
3C000078
3E0000F8
1F0000F8
1F0001F0
0F8003F0
0FE00FF0
1FF83FF8
3FFFFFFC
7EFFFFFE
FC7FFC7F
780FE03E
3000001C
00000008
ENDCHAR
STARTCHAR 00A5
ENCODING 165
SWIDTH 572 0
DWIDTH 31 0
BBX 31 39 0 0
BITMAP
FC00007E
7C00007C
7E0000FC
3F0001F8
1F0001F8
1F8003F0
0F8003E0
0FC007E0
07E007C0
07E00FC0
03F01F80
01F01F80
01F83F00
00F83E00
00FC7E00
007E7C00
007EFC00
003FF800
001FF800
001FF000
000FE000
07FFFFC0
07FFFFC0
07FFFFC0
07FFFFC0
0007C000
0007C000
0007C000
0007C000
07FFFFC0
07FFFFC0
07FFFFC0
07FFFFC0
0007C000
0007C000
0007C000
0007C000
0007C000
0007C000
ENDCHAR
STARTCHAR 00A6
ENCODING 166
SWIDTH 276 0
DWIDTH 15 0
BBX 5 48 5 -9
BITMAP
F8
F8
F8
F8
F8
F8
F8
F8
F8
F8
F8
F8
F8
F8
F8
F8
F8
F8
F8
F8
F8
00
00
00
00
00
00
00
F8
F8
F8
F8
F8
F8
F8
F8
F8
F8
F8
F8
F8
F8
F8
F8
F8
F8
F8
F8
ENDCHAR
STARTCHAR 00A7
ENCODING 167
SWIDTH 535 0
DWIDTH 29 0
BBX 24 44 3 -8
BITMAP
01FE00
07FF80
1FFFE0
3FFFF0
7F8FF0
7E01F8
7C00FC
F800FC
F8007C
FC0000
7C0000
7F0000
3FE000
1FFE00
0FFFC0
0FFFF0
3FFFFC
7E07FC
FC00FE
F8003F
F0003F
F0001F
F8001F
F8001F
FE003E
7FC07E
3FFCFC
1FFFF8
07FFF0
00FFF8
000FFC
0001FC
00007E
00003E
00003E
F8003E
FC003E
7E007E
7F00FC
3FE3FC
1FFFF8
0FFFF0
07FFE0
00FF00
ENDCHAR
STARTCHAR 00A8
ENCODING 168
SWIDTH 535 0
DWIDTH 29 0
BBX 16 5 6 44
BITMAP
F81F
F81F
F81F
F81F
F81F
ENDCHAR
STARTCHAR 00A9
ENCODING 169
SWIDTH 830 0
DWIDTH 45 0
BBX 41 41 2 -2
BITMAP
0000FF800000
0007FFF00000
003FFFFC0000
007FFFFF0000
01FFFFFF8000
03FE003FE000
07F8000FF000
0FE00003F800
0FC00001F800
1F801E00FC00
3F00FFC07E00
3E03FFE03E00
7C07FFF03F00
7C0FC1F81F00
780F807C1F00
F81F003C0F80
F81E00200F80
F81E00000F80
F03E00000F80
F03E00000780
F03E00000780
F03E00000780
F03E00000780
F81E00000F80
F81E00200F80
F81F003C0F80
F80F807C0F00
7C0FC1F81F00
7C07FFF03F00
3E03FFE03E00
3F00FFC07E00
1F803C00FC00
0FC00001F800
0FE00003F800
07F8000FF000
03FE003FE000
01FFFFFFC000
007FFFFF0000
001FFFFE0000
0007FFF00000
0000FF800000
ENDCHAR
STARTCHAR 00AA
ENCODING 170
SWIDTH 313 0
DWIDTH 17 0
BBX 13 16 2 14
BITMAP
0FC0
3FE0
7FF0
7078
3038
0078
0FF8
3FF8
7C38
F038
E078
E078
F9F8
7FF8
3FB8
0400
ENDCHAR
STARTCHAR 00AB
ENCODING 171
SWIDTH 553 0
DWIDTH 30 0
BBX 21 24 5 3
BITMAP
000020
00C030
01F078
03E0F8
07C1F0
0783E0
0F03C0
1F0780
3E0F80
7C1F00
781E00
F03C00
F07C00
F83E00
7C1F00
3C0F00
1E0780
0F07C0
0F83E0
07C1F0
03C0F0
01E078
00E078
008020
ENDCHAR
STARTCHAR 00AC
ENCODING 172
SWIDTH 609 0
DWIDTH 33 0
BBX 26 11 3 10
BITMAP
FFFFFFC0
FFFFFFC0
FFFFFFC0
FFFFFFC0
000003C0
000003C0
000003C0
000003C0
000003C0
000003C0
000003C0
ENDCHAR
STARTCHAR 00AD
ENCODING 173
SWIDTH 424 0
DWIDTH 23 0
BBX 17 4 3 15
BITMAP
FFFF80
FFFF80
FFFF80
FFFF80
ENDCHAR
STARTCHAR 00AE
ENCODING 174
SWIDTH 627 0
DWIDTH 34 0
BBX 27 27 4 15
BITMAP
007F8000
01FFE000
07FFF800
0FFFFC00
1F803E00
3E001F00
3C000F80
787F0780
787FC3C0
F060C3C0
F060C1C0
E060C1C0
E060C1E0
E07FC1E0
E07F01E0
F06381C0
F06181C0
F061C3C0
7860C780
7C000780
3E000F00
1F003F00
0FC0FE00
07FFFC00
03FFF000
00FFC000
00060000
ENDCHAR
STARTCHAR 00AF
ENCODING 175
SWIDTH 498 0
DWIDTH 27 0
BBX 14 4 6 45
BITMAP
FFFC
FFFC
FFFC
FFFC
ENDCHAR
STARTCHAR 00B0
ENCODING 176
SWIDTH 443 0
DWIDTH 24 0
BBX 19 19 2 20
BITMAP
03F000
0FFE00
1FFF00
3FFF80
7F1FC0
7C07C0
F803E0
F003E0
F001E0
F001E0
F001E0
F003E0
F803E0
FC07C0
7E0FC0
3FFF80
1FFF00
0FFE00
03F800
ENDCHAR
STARTCHAR 00B1
ENCODING 177
SWIDTH 609 0
DWIDTH 33 0
BBX 26 25 3 4
BITMAP
001E0000
001E0000
001E0000
001E0000
001E0000
001E0000
001E0000
FFFFFFC0
FFFFFFC0
FFFFFFC0
FFFFFFC0
001E0000
001E0000
001E0000
001E0000
001E0000
001E0000
00000000
00000000
00000000
00000000
FFFFFFC0
FFFFFFC0
FFFFFFC0
FFFFFFC0
ENDCHAR
STARTCHAR 00B2
ENCODING 178
SWIDTH 406 0
DWIDTH 22 0
BBX 16 24 3 15
BITMAP
07E0
1FF8
3FFC
7E7E
F81E
F00F
E00F
E007
0007
000F
000F
001E
003E
007C
01F8
03E0
07C0
0F80
1F00
3E00
7C00
FFFF
FFFF
FFFF
ENDCHAR
STARTCHAR 00B3
ENCODING 179
SWIDTH 387 0
DWIDTH 21 0
BBX 16 25 2 14
BITMAP
7FFF
7FFF
7FFF
001F
003E
007C
00F8
01F0
03E0
07C0
0FF0
0FF8
07FC
001E
000F
000F
0007
0007
000F
700F
F01E
7C3E
3FFC
1FF8
0FF0
ENDCHAR
STARTCHAR 00B4
ENCODING 180
SWIDTH 498 0
DWIDTH 27 0
BBX 7 9 11 43
BITMAP
1E
1E
3C
3C
38
78
78
F0
F0
ENDCHAR
STARTCHAR 00B5
ENCODING 181
SWIDTH 609 0
DWIDTH 33 0
BBX 25 41 4 -12
BITMAP
F8000780
F8000780
F8000780
F8000780
F8000780
F8000780
F8000780
F8000780
F8000780
F8000780
F8000780
F8000780
F8000780
F8000780
F8000780
F8000780
F8000780
F8000F80
F8000F80
F8000F80
FC001F80
FC001F80
FE003F80
FF807F80
FFFFFF80
FFFFF780
F7FFE780
F3FFC780
F0FE0780
F0000000
F0000000
F0000000
F0000000
F0000000
F0000000
F0000000
F0000000
F0000000
F0000000
F0000000
F0000000
ENDCHAR
STARTCHAR 00B6
ENCODING 182
SWIDTH 664 0
DWIDTH 36 0
BBX 28 47 4 -8
BITMAP
00FFE1F0
07FFE1F0
0FFFE1F0
1FFFE1F0
3FFFE1F0
7FFFE1F0
7FFFE1F0
FFFFE1F0
FFFFE1F0
FFFFE1F0
FFFFE1F0
FFFFE1F0
FFFFE1F0
FFFFE1F0
FFFFE1F0
FFFFE1F0
FFFFE1F0
FFFFE1F0
7FFFE1F0
7FFFE1F0
3FFFE1F0
1FFFE1F0
0FFFE1F0
03FFE1F0
001FE1F0
0003E1F0
0003E1F0
0003E1F0
0003E1F0
0003E1F0
0003E1F0
0003E1F0
0003E1F0
0003E1F0
0003E1F0
0003E1F0
0003E1F0
0003E1F0
0003E1F0
0003E1F0
0003E1F0
0003E1F0
0003E1F0
0003E1F0
0003E1F0
0003E1F0
0003E1F0
ENDCHAR
STARTCHAR 00B7
ENCODING 183
SWIDTH 240 0
DWIDTH 13 0
BBX 7 7 3 14
BITMAP
10
7C
FE
FE
FE
7C
38
ENDCHAR
STARTCHAR 00B8
ENCODING 184
SWIDTH 406 0
DWIDTH 22 0
BBX 8 14 7 -13
BITMAP
1C
1C
3C
38
3C
7E
1F
0F
07
0F
FF
FF
FE
F8
ENDCHAR
STARTCHAR 00B9
ENCODING 185
SWIDTH 332 0
DWIDTH 18 0
BBX 8 24 3 15
BITMAP
0F
3F
7F
FF
F7
C7
07
07
07
07
07
07
07
07
07
07
07
07
07
07
07
07
07
07
ENDCHAR
STARTCHAR 00BA
ENCODING 186
SWIDTH 350 0
DWIDTH 19 0
BBX 15 15 2 14
BITMAP
07C0
1FF0
3FF8
783C
701C
F01C
E01E
E01E
E01E
F01C
701C
783C
3FF8
1FF0
0FC0
ENDCHAR
STARTCHAR 00BB
ENCODING 187
SWIDTH 553 0
DWIDTH 30 0
BBX 21 23 4 4
BITMAP
601800
F07C00
F83E00
7C1F00
3C0F00
1E0780
0F07C0
0F83E0
07C1E0
03C0F0
01E078
01E078
03E0F8
07C1F0
0783E0
0F03C0
1E0780
3E0F80
7C1F00
783E00
F03C00
E03800
200800
ENDCHAR
STARTCHAR 00BC
ENCODING 188
SWIDTH 996 0
DWIDTH 54 0
BBX 44 39 3 0
BITMAP
0F0000004000
3F000000E000
7F000000F000
FF000001F000
F7000003E000
C7000007C000
0700000F8000
0700000F8000
0700001F0000
0700003E0000
0700007C0000
0700007C0000
070000F80000
070001F00000
070003E00000
070003C01E00
070007C01C00
07000F803C00
07001F003C00
07001E007800
07003E007800
07007C00F000
0700F800F000
0700F001E000
0701F001E000
0003E003C3C0
0007C003C3C0
0007800783C0
000F800783C0
001F000F03C0
003E000F03C0
003C001E03C0
007C001FFFF0
00F8001FFFF0
01F0001FFFF0
01E0000003C0
03E0000003C0
03C0000003C0
0080000003C0
ENDCHAR
STARTCHAR 00BD
ENCODING 189
SWIDTH 960 0
DWIDTH 52 0
BBX 46 39 3 0
BITMAP
0F0000004000
3F000000E000
7F000001F000
FF000001F000
F7000003E000
C7000007C000
0700000F8000
0700000F8000
0700001F0000
0700003E0000
0700007C0000
070000780000
070000F80000
070001F00000
070003E01F80
070003C07FE0
070007C0FFF0
07000F81F8F8
07001F01E07C
07001E03C03C
07003E03C01C
07007C03801C
0700F800001C
0700F000001C
0001F000003C
0003E000007C
0007C00000F8
000F800001F0
000F800003E0
001F000007C0
003E00000F80
007C00001F00
007C00003E00
00F800007C00
01F00000F800
03E00003E000
03E00003FFFC
01C00003FFFC
00800003FFFC
ENDCHAR
STARTCHAR 00BE
ENCODING 190
SWIDTH 996 0
DWIDTH 54 0
BBX 49 39 2 0
BITMAP
7FFF0000020000
7FFF0000070000
7FFF00000F8000
001F00001F0000
003E00001E0000
007C00003E0000
00F800007C0000
01F00000F80000
03E00001F00000
07C00001F00000
0FF00003E00000
0FF80007C00000
07FC000F800000
001E000F800000
000F001F000000
000F003E00E000
0007007C01E000
0007007C01C000
000F00F803C000
700F01F003C000
F01E03E0078000
7C3E03E0078000
3FFC07C00F0000
1FF80F800F0000
0FF01F001E0000
00001E001E1C00
00003E003C1C00
00007C003C1C00
0000F800781C00
0000F000781C00
0001F000F01C00
0003E000F01C00
0007C000FFFF80
00078000FFFF80
000F8000FFFF80
001F0000001C00
003E0000001C00
001C0000001C00
000C0000001C00
ENDCHAR
STARTCHAR 00BF
ENCODING 191
SWIDTH 535 0
DWIDTH 29 0
BBX 23 40 3 -11
BITMAP
003E00
003E00
003E00
003E00
003E00
003E00
000000
000000
000000
000000
000000
003E00
007E00
007C00
007C00
007C00
00FC00
01F800
03F800
07F000
0FE000
1F8000
3F0000
7E0000
7C0000
FC0000
F80000
F80000
F80000
F8003E
F8003E
F8003E
FC007C
7E00FC
7F01FC
3FFFF8
1FFFF0
0FFFE0
03FF80
007800
ENDCHAR
STARTCHAR 00C0
ENCODING 192
SWIDTH 646 0
DWIDTH 35 0
BBX 33 52 1 0
BITMAP
001E000000
001E000000
000F000000
000F000000
000F000000
0007800000
0007800000
0003C00000
0003C00000
0000000000
0000000000
0000000000
0000000000
0007F00000
0007F00000
000FF80000
000FF80000
000FF80000
001F7C0000
001F7C0000
001F7C0000
003E3E0000
003E3E0000
003E3E0000
007C1F0000
007C1F0000
007C1F0000
00F80F8000
00F80F8000
00F80F8000
01F007C000
01F007C000
01F007C000
03E003E000
03E003E000
03E003E000
07C001F000
07C001F000
07FFFFF000
0FFFFFF800
0FFFFFF800
0FFFFFF800
1FFFFFFC00
1F00007C00
1F00007C00
3E00003E00
3E00003E00
3E00003E00
7C00001F00
7C00001F00
7C00001F00
F800000F80
ENDCHAR
STARTCHAR 00C1
ENCODING 193
SWIDTH 646 0
DWIDTH 35 0
BBX 33 52 1 0
BITMAP
00003C0000
00003C0000
0000780000
0000780000
0000780000
0000F00000
0000F00000
0001E00000
0001E00000
0000000000
0000000000
0000000000
0000000000
0007F00000
0007F00000
000FF80000
000FF80000
000FF80000
001F7C0000
001F7C0000
001F7C0000
003E3E0000
003E3E0000
003E3E0000
007C1F0000
007C1F0000
007C1F0000
00F80F8000
00F80F8000
00F80F8000
01F007C000
01F007C000
01F007C000
03E003E000
03E003E000
03E003E000
07C001F000
07C001F000
07FFFFF000
0FFFFFF800
0FFFFFF800
0FFFFFF800
1FFFFFFC00
1F00007C00
1F00007C00
3E00003E00
3E00003E00
3E00003E00
7C00001F00
7C00001F00
7C00001F00
F800000F80
ENDCHAR
STARTCHAR 00C2
ENCODING 194
SWIDTH 646 0
DWIDTH 35 0
BBX 33 51 1 0
BITMAP
0003E00000
0007F00000
000FF80000
001F7C0000
003E3C0000
003C1E0000
007C1F0000
00F80F8000
0000000000
0000000000
0000000000
0000000000
0007F00000
0007F00000
000FF80000
000FF80000
000FF80000
001F7C0000
001F7C0000
001F7C0000
003E3E0000
003E3E0000
003E3E0000
007C1F0000
007C1F0000
007C1F0000
00F80F8000
00F80F8000
00F80F8000
01F007C000
01F007C000
01F007C000
03E003E000
03E003E000
03E003E000
07C001F000
07C001F000
07FFFFF000
0FFFFFF800
0FFFFFF800
0FFFFFF800
1FFFFFFC00
1F00007C00
1F00007C00
3E00003E00
3E00003E00
3E00003E00
7C00001F00
7C00001F00
7C00001F00
F800000F80
ENDCHAR
STARTCHAR 00C3
ENCODING 195
SWIDTH 646 0
DWIDTH 35 0
BBX 33 52 1 0
BITMAP
003E038000
007F038000
00FFC38000
00FFFF8000
00E1FF8000
00E0FF0000
00E03E0000
0000000000
0000000000
0000000000
0000000000
0000000000
0000000000
0007F00000
0007F00000
000FF80000
000FF80000
000FF80000
001F7C0000
001F7C0000
001F7C0000
003E3E0000
003E3E0000
003E3E0000
007C1F0000
007C1F0000
007C1F0000
00F80F8000
00F80F8000
00F80F8000
01F007C000
01F007C000
01F007C000
03E003E000
03E003E000
03E003E000
07C001F000
07C001F000
07FFFFF000
0FFFFFF800
0FFFFFF800
0FFFFFF800
1FFFFFFC00
1F00007C00
1F00007C00
3E00003E00
3E00003E00
3E00003E00
7C00001F00
7C00001F00
7C00001F00
F800000F80
ENDCHAR
STARTCHAR 00C4
ENCODING 196
SWIDTH 646 0
DWIDTH 35 0
BBX 33 49 1 0
BITMAP
007C1F0000
007C1F0000
007C1F0000
007C1F0000
007C1F0000
0000000000
0000000000
0000000000
0000000000
0000000000
0007F00000
0007F00000
000FF80000
000FF80000
000FF80000
001F7C0000
001F7C0000
001F7C0000
003E3E0000
003E3E0000
003E3E0000
007C1F0000
007C1F0000
007C1F0000
00F80F8000
00F80F8000
00F80F8000
01F007C000
01F007C000
01F007C000
03E003E000
03E003E000
03E003E000
07C001F000
07C001F000
07FFFFF000
0FFFFFF800
0FFFFFF800
0FFFFFF800
1FFFFFFC00
1F00007C00
1F00007C00
3E00003E00
3E00003E00
3E00003E00
7C00001F00
7C00001F00
7C00001F00
F800000F80
ENDCHAR
STARTCHAR 00C5
ENCODING 197
SWIDTH 646 0
DWIDTH 35 0
BBX 33 55 1 0
BITMAP
0003E00000
000FF80000
000FFC0000
001F7C0000
001C1C0000
003C1E0000
003C1E0000
003C1E0000
003C1C0000
001F7C0000
000FFC0000
000FF80000
0003E00000
0000000000
0000000000
0000000000
0007F00000
0007F00000
000FF80000
000FF80000
000FF80000
001F7C0000
001F7C0000
001F7C0000
003E3E0000
003E3E0000
003E3E0000
007C1F0000
007C1F0000
007C1F0000
00F80F8000
00F80F8000
00F80F8000
01F007C000
01F007C000
01F007C000
03E003E000
03E003E000
03E003E000
07C001F000
07C001F000
07FFFFF000
0FFFFFF800
0FFFFFF800
0FFFFFF800
1FFFFFFC00
1F00007C00
1F00007C00
3E00003E00
3E00003E00
3E00003E00
7C00001F00
7C00001F00
7C00001F00
F800000F80
ENDCHAR
STARTCHAR 00C6
ENCODING 198
SWIDTH 923 0
DWIDTH 50 0
BBX 46 39 1 0
BITMAP
0007FFFFFFFC
0007FFFFFFFC
000FFFFFFFFC
000FFFFFFFFC
000FFFFFFFFC
001F03E00000
001F03E00000
001F03E00000
003E03E00000
003E03E00000
003E03E00000
007C03E00000
007C03E00000
007C03E00000
00F803E00000
00F803E00000
00F803E00000
01F003FFFFE0
01F003FFFFE0
01F003FFFFE0
03E003FFFFE0
03E003FFFFE0
03E003E00000
07C003E00000
07C003E00000
07FFFFE00000
0FFFFFE00000
0FFFFFE00000
0FFFFFE00000
1FFFFFE00000
1F0003E00000
1F0003E00000
3E0003E00000
3E0003E00000
3E0003FFFFFC
7C0003FFFFFC
7C0003FFFFFC
7C0003FFFFFC
F80003FFFFFC
ENDCHAR
STARTCHAR 00C7
ENCODING 199
SWIDTH 720 0
DWIDTH 39 0
BBX 35 51 2 -12
BITMAP
0007FC0000
003FFFC000
00FFFFF000
03FFFFF800
07FFFFFC00
0FF801FE00
1FE0007F00
1F80003F80
3F00001F80
3E00000FC0
7E000007C0
7C000007E0
7C000003C0
FC00000000
F800000000
F800000000
F800000000
F800000000
F800000000
F800000000
F800000000
F800000000
F800000000
F800000000
F800000000
F800000000
7C000003C0
7C000007E0
7E000007C0
3E00000FC0
3F00001F80
1F80003F80
1FC0007F00
0FF001FE00
07FFFFFC00
03FFFFF800
00FFFFF000
003FFFC000
0007FE0000
0000700000
0000F00000
0000F00000
0000F80000
00007C0000
00001E0000
00001E0000
00001E0000
0001FC0000
0003FC0000
0003F80000
0001F00000
ENDCHAR
STARTCHAR 00C8
ENCODING 200
SWIDTH 572 0
DWIDTH 31 0
BBX 24 52 4 0
BITMAP
00F000
00F000
007000
007800
007800
003C00
003C00
003C00
001E00
000000
000000
000000
000000
FFFFFF
FFFFFF
FFFFFF
FFFFFF
FFFFFF
F80000
F80000
F80000
F80000
F80000
F80000
F80000
F80000
F80000
F80000
F80000
F80000
FFFFF8
FFFFF8
FFFFF8
FFFFF8
FFFFF8
F80000
F80000
F80000
F80000
F80000
F80000
F80000
F80000
F80000
F80000
F80000
F80000
FFFFFF
FFFFFF
FFFFFF
FFFFFF
FFFFFF
ENDCHAR
STARTCHAR 00C9
ENCODING 201
SWIDTH 572 0
DWIDTH 31 0
BBX 24 52 4 0
BITMAP
0003C0
0003C0
000780
000780
000F00
000F00
000F00
001E00
001E00
000000
000000
000000
000000
FFFFFF
FFFFFF
FFFFFF
FFFFFF
FFFFFF
F80000
F80000
F80000
F80000
F80000
F80000
F80000
F80000
F80000
F80000
F80000
F80000
FFFFF8
FFFFF8
FFFFF8
FFFFF8
FFFFF8
F80000
F80000
F80000
F80000
F80000
F80000
F80000
F80000
F80000
F80000
F80000
F80000
FFFFFF
FFFFFF
FFFFFF
FFFFFF
FFFFFF
ENDCHAR
STARTCHAR 00CA
ENCODING 202
SWIDTH 572 0
DWIDTH 31 0
BBX 24 51 4 0
BITMAP
007C00
00FE00
01FF00
01EF80
03E7C0
07C3E0
0F81E0
1F00F0
000000
000000
000000
000000
FFFFFF
FFFFFF
FFFFFF
FFFFFF
FFFFFF
F80000
F80000
F80000
F80000
F80000
F80000
F80000
F80000
F80000
F80000
F80000
F80000
FFFFF8
FFFFF8
FFFFF8
FFFFF8
FFFFF8
F80000
F80000
F80000
F80000
F80000
F80000
F80000
F80000
F80000
F80000
F80000
F80000
FFFFFF
FFFFFF
FFFFFF
FFFFFF
FFFFFF
ENDCHAR
STARTCHAR 00CB
ENCODING 203
SWIDTH 572 0
DWIDTH 31 0
BBX 24 49 4 0
BITMAP
0F81E0
0F81E0
0F81E0
0F81E0
0F81E0
000000
000000
000000
000000
000000
FFFFFF
FFFFFF
FFFFFF
FFFFFF
FFFFFF
F80000
F80000
F80000
F80000
F80000
F80000
F80000
F80000
F80000
F80000
F80000
F80000
FFFFF8
FFFFF8
FFFFF8
FFFFF8
FFFFF8
F80000
F80000
F80000
F80000
F80000
F80000
F80000
F80000
F80000
F80000
F80000
F80000
FFFFFF
FFFFFF
FFFFFF
FFFFFF
FFFFFF
ENDCHAR
STARTCHAR 00CC
ENCODING 204
SWIDTH 240 0
DWIDTH 13 0
BBX 8 52 1 0
BITMAP
F0
78
78
38
3C
3C
1E
1E
0E
00
00
00
00
1F
1F
1F
1F
1F
1F
1F
1F
1F
1F
1F
1F
1F
1F
1F
1F
1F
1F
1F
1F
1F
1F
1F
1F
1F
1F
1F
1F
1F
1F
1F
1F
1F
1F
1F
1F
1F
1F
1F
ENDCHAR
STARTCHAR 00CD
ENCODING 205
SWIDTH 240 0
DWIDTH 13 0
BBX 8 52 4 0
BITMAP
0F
0F
1E
1E
1E
3C
3C
78
78
00
00
00
00
F8
F8
F8
F8
F8
F8
F8
F8
F8
F8
F8
F8
F8
F8
F8
F8
F8
F8
F8
F8
F8
F8
F8
F8
F8
F8
F8
F8
F8
F8
F8
F8
F8
F8
F8
F8
F8
F8
F8
ENDCHAR
STARTCHAR 00CE
ENCODING 206
SWIDTH 240 0
DWIDTH 13 0
BBX 17 51 -2 0
BITMAP
03E000
07F000
0FF800
0F7C00
1E3E00
3E1F00
7C0F00
F80F80
000000
000000
000000
000000
03E000
03E000
03E000
03E000
03E000
03E000
03E000
03E000
03E000
03E000
03E000
03E000
03E000
03E000
03E000
03E000
03E000
03E000
03E000
03E000
03E000
03E000
03E000
03E000
03E000
03E000
03E000
03E000
03E000
03E000
03E000
03E000
03E000
03E000
03E000
03E000
03E000
03E000
03E000
ENDCHAR
STARTCHAR 00CF
ENCODING 207
SWIDTH 240 0
DWIDTH 13 0
BBX 15 49 -1 0
BITMAP
F81E
F81E
F81E
F81E
F81E
0000
0000
0000
0000
0000
07C0
07C0
07C0
07C0
07C0
07C0
07C0
07C0
07C0
07C0
07C0
07C0
07C0
07C0
07C0
07C0
07C0
07C0
07C0
07C0
07C0
07C0
07C0
07C0
07C0
07C0
07C0
07C0
07C0
07C0
07C0
07C0
07C0
07C0
07C0
07C0
07C0
07C0
07C0
ENDCHAR
STARTCHAR 00D0
ENCODING 208
SWIDTH 683 0
DWIDTH 37 0
BBX 33 39 1 0
BITMAP
1FFFF80000
1FFFFF0000
1FFFFFC000
1FFFFFE000
1FFFFFF000
1F0007F800
1F0001FC00
1F0000FC00
1F00007E00
1F00003E00
1F00003F00
1F00001F00
1F00001F00
1F00001F80
1F00000F80
1F00000F80
1F00000F80
FFFF800F80
FFFF800F80
FFFF800F80
FFFF800F80
1F00000F80
1F00000F80
1F00000F80
1F00000F80
1F00001F80
1F00001F00
1F00001F00
1F00003F00
1F00003E00
1F00007E00
1F0000FC00
1F0001FC00
1F0007F800
1FFFFFF000
1FFFFFE000
1FFFFFC000
1FFFFF0000
1FFFF80000
ENDCHAR
STARTCHAR 00D1
ENCODING 209
SWIDTH 701 0
DWIDTH 38 0
BBX 30 51 4 0
BITMAP
00380000
00FE0700
01FF8700
01FFCF00
01E7FF00
01C3FF00
01C0FE00
00003800
00000000
00000000
00000000
00000000
F800007C
FC00007C
FC00007C
FE00007C
FF00007C
FF00007C
FF80007C
FFC0007C
FFC0007C
FFE0007C
FBF0007C
F9F0007C
F9F8007C
F8FC007C
F87C007C
F87E007C
F83F007C
F81F007C
F81F807C
F80FC07C
F807C07C
F807E07C
F803F07C
F801F07C
F801F87C
F800FC7C
F8007C7C
F8007E7C
F8003F7C
F8001F7C
F8001FFC
F8000FFC
F80007FC
F80007FC
F80003FC
F80001FC
F80001FC
F80000FC
F800007C
ENDCHAR
STARTCHAR 00D2
ENCODING 210
SWIDTH 738 0
DWIDTH 40 0
BBX 36 52 2 0
BITMAP
000F000000
000F000000
0007800000
0007800000
0003C00000
0003C00000
0003C00000
0001E00000
0001E00000
0000000000
0000000000
0000000000
0000000000
0007FE0000
003FFFC000
00FFFFF000
03FFFFF800
07FFFFFC00
0FF801FE00
1FE0007F00
1F80003F80
3F00001F80
3E00000FC0
7E000007C0
7C000007E0
7C000003E0
FC000003E0
F8000003F0
F8000001F0
F8000001F0
F8000001F0
F8000001F0
F8000001F0
F8000001F0
F8000001F0
F8000001F0
F8000001F0
F8000003F0
FC000003E0
7C000003E0
7C000007E0
7E000007C0
3E00000FC0
3F00001F80
1F80003F80
1FE0007F00
0FF801FE00
07FFFFFC00
03FFFFF800
00FFFFF000
003FFFC000
0007FE0000
ENDCHAR
STARTCHAR 00D3
ENCODING 211
SWIDTH 738 0
DWIDTH 40 0
BBX 36 52 2 0
BITMAP
00000F0000
00001E0000
00001E0000
00001C0000
00003C0000
00003C0000
0000780000
0000780000
0000780000
0000000000
0000000000
0000000000
0000000000
0007FE0000
003FFFC000
00FFFFF000
03FFFFF800
07FFFFFC00
0FF801FE00
1FE0007F00
1F80003F80
3F00001F80
3E00000FC0
7E000007C0
7C000007E0
7C000003E0
FC000003E0
F8000003F0
F8000001F0
F8000001F0
F8000001F0
F8000001F0
F8000001F0
F8000001F0
F8000001F0
F8000001F0
F8000001F0
F8000003F0
FC000003E0
7C000003E0
7C000007E0
7E000007C0
3E00000FC0
3F00001F80
1F80003F80
1FE0007F00
0FF801FE00
07FFFFFC00
03FFFFF800
00FFFFF000
003FFFC000
0007FE0000
ENDCHAR
STARTCHAR 00D4
ENCODING 212
SWIDTH 738 0
DWIDTH 40 0
BBX 36 51 2 0
BITMAP
0001F00000
0001F80000
0003FC0000
0007FE0000
000F9F0000
001F0F0000
003E0F8000
007C07C000
0000000000
0000000000
0000000000
0000000000
0007FE0000
003FFFC000
00FFFFF000
03FFFFF800
07FFFFFC00
0FF801FE00
1FE0007F00
1F80003F80
3F00001F80
3E00000FC0
7E000007C0
7C000007E0
7C000003E0
FC000003E0
F8000003F0
F8000001F0
F8000001F0
F8000001F0
F8000001F0
F8000001F0
F8000001F0
F8000001F0
F8000001F0
F8000001F0
F8000003F0
FC000003E0
7C000003E0
7C000007E0
7E000007C0
3E00000FC0
3F00001F80
1F80003F80
1FE0007F00
0FF801FE00
07FFFFFC00
03FFFFF800
00FFFFF000
003FFFC000
0007FE0000
ENDCHAR
STARTCHAR 00D5
ENCODING 213
SWIDTH 738 0
DWIDTH 40 0
BBX 36 50 2 0
BITMAP
000601E000
001FC0E000
003FE1E000
003FFFE000
0078FFC000
00383FC000
00380F8000
0000000000
0000000000
0000000000
0000000000
0007FE0000
003FFFC000
00FFFFF000
03FFFFF800
07FFFFFC00
0FF801FE00
1FE0007F00
1F80003F80
3F00001F80
3E00000FC0
7E000007C0
7C000007E0
7C000003E0
FC000003E0
F8000003F0
F8000001F0
F8000001F0
F8000001F0
F8000001F0
F8000001F0
F8000001F0
F8000001F0
F8000001F0
F8000001F0
F8000003F0
FC000003E0
7C000003E0
7C000007E0
7E000007C0
3E00000FC0
3F00001F80
1F80003F80
1FE0007F00
0FF801FE00
07FFFFFC00
03FFFFF800
00FFFFF000
003FFFC000
0007FE0000
ENDCHAR
STARTCHAR 00D6
ENCODING 214
SWIDTH 738 0
DWIDTH 40 0
BBX 36 48 2 0
BITMAP
003E07C000
003E07C000
003E07C000
003E07C000
003E07C000
0000000000
0000000000
0000000000
0000000000
0007FE0000
003FFFC000
00FFFFF000
03FFFFF800
07FFFFFC00
0FF801FE00
1FE0007F00
1F80003F80
3F00001F80
3E00000FC0
7E000007C0
7C000007E0
7C000003E0
FC000003E0
F8000003F0
F8000001F0
F8000001F0
F8000001F0
F8000001F0
F8000001F0
F8000001F0
F8000001F0
F8000001F0
F8000001F0
F8000003F0
FC000003E0
7C000003E0
7C000007E0
7E000007C0
3E00000FC0
3F00001F80
1F80003F80
1FE0007F00
0FF801FE00
07FFFFFC00
03FFFFF800
00FFFFF000
003FFFC000
0007FE0000
ENDCHAR
STARTCHAR 00D7
ENCODING 215
SWIDTH 498 0
DWIDTH 27 0
BBX 20 20 3 9
BITMAP
100040
3800E0
7C01F0
7E03F0
3F07E0
1F8FC0
0FDF80
07FF00
03FE00
01FC00
01FC00
03FE00
07FF00
0FDF80
1F8FC0
3F07E0
7E03F0
FC01F0
7800E0
300040
ENDCHAR
STARTCHAR 00D8
ENCODING 216
SWIDTH 738 0
DWIDTH 40 0
BBX 36 39 2 0
BITMAP
0007FC0040
003FFFC0E0
00FFFFF1F0
03FFFFFBF0
07FFFFFFE0
0FF801FFC0
1FE0007F80
1F80003F80
3F00003FC0
3E00007FC0
7E0000FFC0
7C0001FFE0
7C0003F3E0
FC0007E3E0
F8000FC3F0
F8001F81F0
F8003F01F0
F8007E01F0
F800FC01F0
F801F801F0
F803F001F0
F807E001F0
F80FC001F0
F81F8001F0
F83F0003F0
F87E0003E0
7CFC0003E0
7DFC0007E0
7FF80007C0
3FF0000FC0
3FE0001F80
1FC0003F80
1FE0007F00
3FF801FE00
7FFFFFFC00
FFFFFFF800
F8FFFFF000
703FFFC000
2007FE0000
ENDCHAR
STARTCHAR 00D9
ENCODING 217
SWIDTH 701 0
DWIDTH 38 0
BBX 31 52 4 0
BITMAP
001E0000
001E0000
001E0000
000F0000
000F0000
00070000
00078000
00078000
0003C000
00000000
00000000
00000000
00000000
F800003E
F800003E
F800003E
F800003E
F800003E
F800003E
F800003E
F800003E
F800003E
F800003E
F800003E
F800003E
F800003E
F800003E
F800003E
F800003E
F800003E
F800003E
F800003E
F800003E
F800003E
F800003E
F800003E
F800003E
F800003E
F800003C
F800007C
F800007C
FC00007C
7C0000FC
7E0001F8
7F0001F8
3F8007F0
1FE00FF0
0FFFFFE0
07FFFFC0
03FFFF00
00FFFE00
001FF000
ENDCHAR
STARTCHAR 00DA
ENCODING 218
SWIDTH 701 0
DWIDTH 38 0
BBX 31 52 4 0
BITMAP
0000F000
0000F000
0001E000
0001E000
0003C000
0003C000
0003C000
00078000
00078000
00000000
00000000
00000000
00000000
F800003E
F800003E
F800003E
F800003E
F800003E
F800003E
F800003E
F800003E
F800003E
F800003E
F800003E
F800003E
F800003E
F800003E
F800003E
F800003E
F800003E
F800003E
F800003E
F800003E
F800003E
F800003E
F800003E
F800003E
F800003E
F800003C
F800007C
F800007C
FC00007C
7C0000FC
7E0001F8
7F0001F8
3F8007F0
1FE00FF0
0FFFFFE0
07FFFFC0
03FFFF00
00FFFE00
001FF000
ENDCHAR
STARTCHAR 00DB
ENCODING 219
SWIDTH 701 0
DWIDTH 38 0
BBX 31 51 4 0
BITMAP
0007C000
000FE000
001FE000
003EF000
007CF800
00F87C00
01F03E00
01E01F00
00000000
00000000
00000000
00000000
F800003E
F800003E
F800003E
F800003E
F800003E
F800003E
F800003E
F800003E
F800003E
F800003E
F800003E
F800003E
F800003E
F800003E
F800003E
F800003E
F800003E
F800003E
F800003E
F800003E
F800003E
F800003E
F800003E
F800003E
F800003E
F800003C
F800007C
F800007C
FC00007C
7C0000FC
7E0001F8
7F0001F8
3F8007F0
1FE00FF0
0FFFFFE0
07FFFFC0
03FFFF00
00FFFE00
001FF000
ENDCHAR
STARTCHAR 00DC
ENCODING 220
SWIDTH 701 0
DWIDTH 38 0
BBX 31 49 4 0
BITMAP
01F03E00
01F03E00
01F03E00
01F03E00
01F03E00
00000000
00000000
00000000
00000000
00000000
F800003E
F800003E
F800003E
F800003E
F800003E
F800003E
F800003E
F800003E
F800003E
F800003E
F800003E
F800003E
F800003E
F800003E
F800003E
F800003E
F800003E
F800003E
F800003E
F800003E
F800003E
F800003E
F800003E
F800003E
F800003E
F800003C
F800007C
F800007C
FC00007C
7C0000FC
7E0001F8
7F0001F8
3F8007F0
1FE00FF0
0FFFFFE0
07FFFFC0
03FFFF00
00FFFE00
001FF000
ENDCHAR
STARTCHAR 00DD
ENCODING 221
SWIDTH 572 0
DWIDTH 31 0
BBX 31 52 0 0
BITMAP
0000F000
0000F000
0000F000
0001E000
0001E000
0003C000
0003C000
0003C000
00078000
00000000
00000000
00000000
00000000
FC00007E
7C00007C
7E0000FC
3F0001F8
1F0001F8
1F8003F0
0F8003E0
0FC007E0
07E007C0
07E00FC0
03F01F80
01F01F00
01F83F00
00F83E00
00FC7E00
007E7C00
007EFC00
003FF800
001FF000
001FF000
000FE000
000FE000
0007C000
0007C000
0007C000
0007C000
0007C000
0007C000
0007C000
0007C000
0007C000
0007C000
0007C000
0007C000
0007C000
0007C000
0007C000
0007C000
0007C000
ENDCHAR
STARTCHAR 00DE
ENCODING 222
SWIDTH 609 0
DWIDTH 33 0
BBX 27 39 4 0
BITMAP
F8000000
F8000000
F8000000
F8000000
F8000000
F8000000
F8000000
FFFF0000
FFFFF000
FFFFFC00
FFFFFE00
FFFFFF00
F8007F80
F8001F80
F8000FC0
F80007C0
F80003E0
F80003E0
F80003E0
F80003E0
F80003E0
F80003E0
F80003E0
F80007C0
F8000FC0
F8001FC0
F8007F80
FFFFFF00
FFFFFE00
FFFFFC00
FFFFF000
FFFF0000
F8000000
F8000000
F8000000
F8000000
F8000000
F8000000
F8000000
ENDCHAR
STARTCHAR 00DF
ENCODING 223
SWIDTH 609 0
DWIDTH 33 0
BBX 26 39 4 0
BITMAP
01FE0000
07FF8000
1FFFE000
3FFFF000
7FFFF800
7E01F800
FC00FC00
F8007C00
F8007C00
F8007C00
F8003C00
F8007C00
F8007C00
F800FC00
F801F800
F803F800
F81FF000
F81FE000
F81FF000
F81FFC00
F80FFE00
F8007F00
F8001F80
F8000F80
F8000F80
F80007C0
F80007C0
F80007C0
F80007C0
F80007C0
F8000F80
F8000F80
F8001F80
F8007F00
F8FFFF00
F8FFFE00
F8FFFC00
F8FFF000
F8FFC000
ENDCHAR
STARTCHAR 00E0
ENCODING 224
SWIDTH 553 0
DWIDTH 30 0
BBX 25 42 2 0
BITMAP
00F00000
00780000
00780000
00380000
003C0000
003C0000
001E0000
001E0000
001E0000
00000000
00000000
00000000
00000000
007FC000
03FFF000
07FFFC00
0FFFFE00
1FFFFF00
3F803F00
3E001F80
7E000F80
0C000F80
00000F80
00000F80
0003FF80
007FFF80
07FFFF80
0FFFFF80
3FFC0F80
7F800F80
7E000F80
FC000F80
F8000F80
F8001F80
F8001F80
F8003F80
7C00FF80
7F03F780
3FFFF780
1FFFC780
0FFF8780
03FC0000
ENDCHAR
STARTCHAR 00E1
ENCODING 225
SWIDTH 553 0
DWIDTH 30 0
BBX 25 42 2 0
BITMAP
0001E000
0001E000
0003C000
0003C000
00078000
00078000
00078000
000F0000
000F0000
00000000
00000000
00000000
00000000
007FC000
03FFF000
07FFFC00
0FFFFE00
1FFFFF00
3F803F00
3E001F80
7E000F80
0C000F80
00000F80
00000F80
0003FF80
007FFF80
07FFFF80
0FFFFF80
3FFC0F80
7F800F80
7E000F80
FC000F80
F8000F80
F8001F80
F8001F80
F8003F80
7C00FF80
7F03F780
3FFFF780
1FFFC780
0FFF8780
03FC0000
ENDCHAR
STARTCHAR 00E2
ENCODING 226
SWIDTH 553 0
DWIDTH 30 0
BBX 25 41 2 0
BITMAP
001F0000
003F8000
003FC000
007BE000
00F9E000
01F0F000
03E0F800
07C07C00
00000000
00000000
00000000
00000000
007FC000
03FFF000
07FFFC00
0FFFFE00
1FFFFF00
3F803F00
3E001F80
7E000F80
0C000F80
00000F80
00000F80
0003FF80
007FFF80
07FFFF80
0FFFFF80
3FFC0F80
7F800F80
7E000F80
FC000F80
F8000F80
F8001F80
F8001F80
F8003F80
7C00FF80
7F03F780
3FFFF780
1FFFC780
0FFF8780
03FC0000
ENDCHAR
STARTCHAR 00E3
ENCODING 227
SWIDTH 553 0
DWIDTH 30 0
BBX 25 40 2 0
BITMAP
00E01C00
01F81E00
03FE1E00
07FFFE00
078FFC00
0783FC00
0780F800
00000000
00000000
00000000
00000000
007FC000
03FFF000
07FFFC00
0FFFFE00
1FFFFF00
3F803F00
3E001F80
7E000F80
0C000F80
00000F80
00000F80
0003FF80
007FFF80
07FFFF80
0FFFFF80
3FFC0F80
7F800F80
7E000F80
FC000F80
F8000F80
F8001F80
F8001F80
F8003F80
7C00FF80
7F03F780
3FFFF780
1FFFC780
0FFF8780
03FC0000
ENDCHAR
STARTCHAR 00E4
ENCODING 228
SWIDTH 553 0
DWIDTH 30 0
BBX 25 39 2 0
BITMAP
03E07C00
03E07C00
03E07C00
03E07C00
03E07C00
00000000
00000000
00000000
00000000
00000000
007FC000
03FFF000
07FFFC00
0FFFFE00
1FFFFF00
3F803F00
3E001F80
7E000F80
0C000F80
00000F80
00000F80
0003FF80
007FFF80
07FFFF80
0FFFFF80
3FFC0F80
7F800F80
7E000F80
FC000F80
F8000F80
F8001F80
F8001F80
F8003F80
7C00FF80
7F03F780
3FFFF780
1FFFC780
0FFF8780
03FC0000
ENDCHAR
STARTCHAR 00E5
ENCODING 229
SWIDTH 553 0
DWIDTH 30 0
BBX 25 44 2 0
BITMAP
001F0000
003FC000
007FE000
00F9E000
00E0F000
01E0F000
01E07000
01E0F000
00E0F000
00F9E000
007FE000
003FC000
001F0000
00000000
00000000
007FC000
03FFF000
07FFFC00
0FFFFE00
1FFFFF00
3F803F00
3E001F80
7E000F80
0C000F80
00000F80
00000F80
0003FF80
007FFF80
07FFFF80
0FFFFF80
3FFC0F80
7F800F80
7E000F80
FC000F80
F8000F80
F8001F80
F8001F80
F8003F80
7C00FF80
7F03F780
3FFFF780
1FFFC780
0FFF8780
03FC0000
ENDCHAR
STARTCHAR 00E6
ENCODING 230
SWIDTH 941 0
DWIDTH 51 0
BBX 47 29 2 0
BITMAP
007FC003FC00
01FFF00FFF00
07FFFC3FFFC0
0FFFFE7FFFE0
1FFFFEFF0FF0
3F803FF801F0
3E001FF000F8
7C000FE00078
0C000FE0007C
00000FC0007C
00000FC0003C
00000FC0003C
003FFFFFFFFE
03FFFFFFFFFE
0FFFFFFFFFFE
3FFFCFFFFFFE
7F800FC00000
7E000FC00000
FC000FC00000
F8000FC00000
F8001FE00070
F8001FE0007C
F8003FF000FC
7C00FDFC03F8
7F03F8FFFFF0
3FFFF07FFFE0
1FFFE03FFFC0
0FFF800FFF00
01FE0003FC00
ENDCHAR
STARTCHAR 00E7
ENCODING 231
SWIDTH 553 0
DWIDTH 30 0
BBX 27 42 2 -13
BITMAP
003FC000
01FFF800
03FFFC00
07FFFF00
0FFFFF80
1FC03F80
3F000FC0
3E0007C0
7E0007C0
7C000000
7C000000
FC000000
F8000000
F8000000
F8000000
F8000000
F8000000
FC000000
7C000000
7C000000
7C000300
7E0007E0
3F000FC0
1F801F80
1FE07F80
0FFFFF00
07FFFE00
01FFF800
003FC000
000F0000
000E0000
000E0000
001F8000
001FC000
0003C000
0003C000
0003C000
0003C000
003FC000
003F8000
007F0000
00080000
ENDCHAR
STARTCHAR 00E8
ENCODING 232
SWIDTH 590 0
DWIDTH 32 0
BBX 28 42 2 0
BITMAP
00780000
00780000
003C0000
003C0000
001E0000
001E0000
001E0000
000F0000
000F0000
00000000
00000000
00000000
00000000
003FC000
01FFF800
03FFFE00
07FFFF00
0FF9FF80
1F801F80
3F000FC0
3E0007C0
7C0003E0
7C0003E0
7C0003E0
F80001F0
FFFFFFF0
FFFFFFF0
FFFFFFF0
FFFFFFF0
F8000000
FC000000
7C000000
7C000000
7E000380
3E0007E0
3F000FE0
1FC01FC0
0FFFFF80
07FFFF00
03FFFE00
01FFF800
003FC000
ENDCHAR
STARTCHAR 00E9
ENCODING 233
SWIDTH 590 0
DWIDTH 32 0
BBX 28 42 2 0
BITMAP
0000F000
0000F000
0000F000
0001E000
0001E000
0003C000
0003C000
0003C000
00078000
00000000
00000000
00000000
00000000
003FC000
01FFF800
03FFFE00
07FFFF00
0FF9FF80
1F801F80
3F000FC0
3E0007C0
7C0003E0
7C0003E0
7C0003E0
F80001F0
FFFFFFF0
FFFFFFF0
FFFFFFF0
FFFFFFF0
F8000000
FC000000
7C000000
7C000000
7E000380
3E0007E0
3F000FE0
1FC01FC0
0FFFFF80
07FFFF00
03FFFE00
01FFF800
003FC000
ENDCHAR
STARTCHAR 00EA
ENCODING 234
SWIDTH 590 0
DWIDTH 32 0
BBX 28 41 2 0
BITMAP
000F8000
001F8000
003FC000
007FE000
00F9F000
00F0F800
01E07C00
03E03E00
00000000
00000000
00000000
00000000
003FC000
01FFF800
03FFFE00
07FFFF00
0FF9FF80
1F801F80
3F000FC0
3E0007C0
7C0003E0
7C0003E0
7C0003E0
F80001F0
FFFFFFF0
FFFFFFF0
FFFFFFF0
FFFFFFF0
F8000000
FC000000
7C000000
7C000000
7E000380
3E0007E0
3F000FE0
1FC01FC0
0FFFFF80
07FFFF00
03FFFE00
01FFF800
003FC000
ENDCHAR
STARTCHAR 00EB
ENCODING 235
SWIDTH 590 0
DWIDTH 32 0
BBX 28 39 2 0
BITMAP
03E07C00
03E07C00
03E07C00
03E07C00
03E07C00
00000000
00000000
00000000
00000000
00000000
003FC000
01FFF800
03FFFE00
07FFFF00
0FF9FF80
1F801F80
3F000FC0
3E0007C0
7C0003E0
7C0003E0
7C0003E0
F80001F0
FFFFFFF0
FFFFFFF0
FFFFFFF0
FFFFFFF0
F8000000
FC000000
7C000000
7C000000
7E000380
3E0007E0
3F000FE0
1FC01FC0
0FFFFF80
07FFFF00
03FFFE00
01FFF800
003FC000
ENDCHAR
STARTCHAR 00EC
ENCODING 236
SWIDTH 240 0
DWIDTH 13 0
BBX 7 42 2 0
BITMAP
E0
F0
F0
78
78
78
3C
3C
1E
00
00
00
00
3E
3E
3E
3E
3E
3E
3E
3E
3E
3E
3E
3E
3E
3E
3E
3E
3E
3E
3E
3E
3E
3E
3E
3E
3E
3E
3E
3E
3E
ENDCHAR
STARTCHAR 00ED
ENCODING 237
SWIDTH 240 0
DWIDTH 13 0
BBX 8 42 4 0
BITMAP
0F
0F
1E
1E
3C
3C
3C
78
78
00
00
00
00
F8
F8
F8
F8
F8
F8
F8
F8
F8
F8
F8
F8
F8
F8
F8
F8
F8
F8
F8
F8
F8
F8
F8
F8
F8
F8
F8
F8
F8
ENDCHAR
STARTCHAR 00EE
ENCODING 238
SWIDTH 240 0
DWIDTH 13 0
BBX 18 41 -2 0
BITMAP
03F000
03F000
07F800
0FFC00
1F3E00
3E1F00
7C0F80
F807C0
000000
000000
000000
000000
03E000
03E000
03E000
03E000
03E000
03E000
03E000
03E000
03E000
03E000
03E000
03E000
03E000
03E000
03E000
03E000
03E000
03E000
03E000
03E000
03E000
03E000
03E000
03E000
03E000
03E000
03E000
03E000
03E000
ENDCHAR
STARTCHAR 00EF
ENCODING 239
SWIDTH 240 0
DWIDTH 13 0
BBX 15 39 -1 0
BITMAP
F81E
F81E
F81E
F81E
F81E
0000
0000
0000
0000
0000
07C0
07C0
07C0
07C0
07C0
07C0
07C0
07C0
07C0
07C0
07C0
07C0
07C0
07C0
07C0
07C0
07C0
07C0
07C0
07C0
07C0
07C0
07C0
07C0
07C0
07C0
07C0
07C0
07C0
ENDCHAR
STARTCHAR 00F0
ENCODING 240
SWIDTH 590 0
DWIDTH 32 0
BBX 28 43 2 0
BITMAP
00000800
00001C00
003C3E00
003FFC00
003FF800
003FF800
0007F800
0003FC00
0007FE00
000F9F00
00070F80
00020F80
000007C0
000003C0
003FC3C0
01FFF3C0
03FFFDE0
0FFFFFE0
1FF9FFE0
1F803FE0
3F000FE0
3E0007E0
7C0007E0
7C0003F0
7C0003F0
F80003F0
F80001F0
F80001F0
F80001F0
F80001F0
F80001E0
F80003E0
7C0003E0
7C0003E0
7C0007E0
3E0007C0
3F000FC0
1F803F80
1FF1FF00
0FFFFF00
07FFFC00
01FFF800
003FC000
ENDCHAR
STARTCHAR 00F1
ENCODING 241
SWIDTH 609 0
DWIDTH 33 0
BBX 25 40 4 0
BITMAP
01803800
07F03800
0FFC3800
0FFFF800
0E3FF800
0E0FF000
0E03E000
00000000
00000000
00000000
00000000
E03F8000
F0FFF000
F3FFF800
F7FFFC00
FFFFFE00
FF807F00
FE003F00
FC001F80
FC001F80
F8000F80
F8000F80
F8000F80
F8000F80
F8000780
F8000780
F8000780
F8000780
F8000780
F8000780
F8000780
F8000780
F8000780
F8000780
F8000780
F8000780
F8000780
F8000780
F8000780
F8000780
ENDCHAR
STARTCHAR 00F2
ENCODING 242
SWIDTH 609 0
DWIDTH 33 0
BBX 28 42 2 0
BITMAP
00700000
00780000
00780000
003C0000
003C0000
003C0000
001E0000
001E0000
000F0000
00000000
00000000
00000000
00000000
003FC000
01FFF800
03FFFE00
07FFFF00
0FFFFF80
1FC01FC0
3F000FC0
3E0007E0
7E0003E0
7C0003F0
7C0001F0
FC0001F0
F80001F0
F80001F0
F80001F0
F80001F0
F80001F0
FC0001F0
7C0001F0
7C0003F0
7E0003E0
3E0007E0
3F000FC0
1FC01FC0
0FFFFF80
07FFFF00
03FFFE00
01FFF800
003FC000
ENDCHAR
STARTCHAR 00F3
ENCODING 243
SWIDTH 609 0
DWIDTH 33 0
BBX 28 42 2 0
BITMAP
0000F000
0001E000
0001E000
0001E000
0003C000
0003C000
00078000
00078000
00078000
00000000
00000000
00000000
00000000
003FC000
01FFF800
03FFFE00
07FFFF00
0FFFFF80
1FC01FC0
3F000FC0
3E0007E0
7E0003E0
7C0003F0
7C0001F0
FC0001F0
F80001F0
F80001F0
F80001F0
F80001F0
F80001F0
FC0001F0
7C0001F0
7C0003F0
7E0003E0
3E0007E0
3F000FC0
1FC01FC0
0FFFFF80
07FFFF00
03FFFE00
01FFF800
003FC000
ENDCHAR
STARTCHAR 00F4
ENCODING 244
SWIDTH 609 0
DWIDTH 33 0
BBX 28 41 2 0
BITMAP
000F8000
001F8000
003FC000
007FE000
00F9F000
00F0F800
01E07C00
03E03E00
00000000
00000000
00000000
00000000
003FC000
01FFF800
03FFFE00
07FFFF00
0FFFFF80
1FC01FC0
3F000FC0
3E0007E0
7E0003E0
7C0003F0
7C0001F0
FC0001F0
F80001F0
F80001F0
F80001F0
F80001F0
F80001F0
FC0001F0
7C0001F0
7C0003F0
7E0003E0
3E0007E0
3F000FC0
1FC01FC0
0FFFFF80
07FFFF00
03FFFE00
01FFF800
003FC000
ENDCHAR
STARTCHAR 00F5
ENCODING 245
SWIDTH 609 0
DWIDTH 33 0
BBX 28 40 2 0
BITMAP
00601E00
01FC0E00
03FF1E00
03FFFE00
038FFE00
0383FC00
0380F800
00000000
00000000
00000000
00000000
003FC000
01FFF800
03FFFE00
07FFFF00
0FFFFF80
1FC01FC0
3F000FC0
3E0007E0
7E0003E0
7C0003F0
7C0001F0
FC0001F0
F80001F0
F80001F0
F80001F0
F80001F0
F80001F0
FC0001F0
7C0001F0
7C0003F0
7E0003E0
3E0007E0
3F000FC0
1FC01FC0
0FFFFF80
07FFFF00
03FFFE00
01FFF800
003FC000
ENDCHAR
STARTCHAR 00F6
ENCODING 246
SWIDTH 609 0
DWIDTH 33 0
BBX 28 39 2 0
BITMAP
01E07C00
01E07C00
01E07C00
01E07C00
01E07C00
00000000
00000000
00000000
00000000
00000000
003FC000
01FFF800
03FFFE00
07FFFF00
0FFFFF80
1FC01FC0
3F000FC0
3E0007E0
7E0003E0
7C0003F0
7C0001F0
FC0001F0
F80001F0
F80001F0
F80001F0
F80001F0
F80001F0
FC0001F0
7C0001F0
7C0003F0
7E0003E0
3E0007E0
3F000FC0
1FC01FC0
0FFFFF80
07FFFF00
03FFFE00
01FFF800
003FC000
ENDCHAR
STARTCHAR 00F7
ENCODING 247
SWIDTH 535 0
DWIDTH 29 0
BBX 23 20 3 9
BITMAP
007C00
007C00
007C00
007C00
007C00
000000
000000
000000
FFFFFE
FFFFFE
FFFFFE
FFFFFE
000000
000000
000000
007C00
007C00
007C00
007C00
007C00
ENDCHAR
STARTCHAR 00F8
ENCODING 248
SWIDTH 609 0
DWIDTH 33 0
BBX 30 29 1 0
BITMAP
001FE010
00FFFC78
01FFFFFC
03FFFFFC
07FFFFF8
0FE00FF0
1F8007F0
1F000FF0
3F001FF0
3E003FF8
3E007CF8
7E00F8F8
7C01F0F8
7C03E0F8
7C07C0F8
7C1F80F8
7C3F00F8
7E7E00F8
3EFC00F8
3FF001F8
3FE001F0
1FC003F0
1F8007E0
3FE00FE0
7FFFFFC0
FFFFFF80
7FFFFF00
38FFFC00
101FE000
ENDCHAR
STARTCHAR 00F9
ENCODING 249
SWIDTH 609 0
DWIDTH 33 0
BBX 26 42 3 0
BITMAP
00F00000
00780000
00780000
00780000
003C0000
003C0000
001E0000
001E0000
001E0000
00000000
00000000
00000000
00000000
F80007C0
F80007C0
F80007C0
F80007C0
F80007C0
F80007C0
F80007C0
F80007C0
F80007C0
F80007C0
F80007C0
F80007C0
F80007C0
F80007C0
F80007C0
F80007C0
F80007C0
F80007C0
FC0007C0
7C000FC0
7C000FC0
7E001FC0
3F003FC0
3F807FC0
1FFFFFC0
1FFFFBC0
0FFFF3C0
03FFC3C0
00FF03C0
ENDCHAR
STARTCHAR 00FA
ENCODING 250
SWIDTH 609 0
DWIDTH 33 0
BBX 26 42 3 0
BITMAP
0003C000
0003C000
00078000
00078000
00070000
000F0000
000F0000
001E0000
001E0000
00000000
00000000
00000000
00000000
F80007C0
F80007C0
F80007C0
F80007C0
F80007C0
F80007C0
F80007C0
F80007C0
F80007C0
F80007C0
F80007C0
F80007C0
F80007C0
F80007C0
F80007C0
F80007C0
F80007C0
F80007C0
FC0007C0
7C000FC0
7C000FC0
7E001FC0
3F003FC0
3F807FC0
1FFFFFC0
1FFFFBC0
0FFFF3C0
03FFC3C0
00FF03C0
ENDCHAR
STARTCHAR 00FB
ENCODING 251
SWIDTH 609 0
DWIDTH 33 0
BBX 26 41 3 0
BITMAP
003F0000
003F0000
007F8000
00F3C000
01F3E000
03E1F000
07C0F800
0F807C00
00000000
00000000
00000000
00000000
F80007C0
F80007C0
F80007C0
F80007C0
F80007C0
F80007C0
F80007C0
F80007C0
F80007C0
F80007C0
F80007C0
F80007C0
F80007C0
F80007C0
F80007C0
F80007C0
F80007C0
F80007C0
FC0007C0
7C000FC0
7C000FC0
7E001FC0
3F003FC0
3F807FC0
1FFFFFC0
1FFFFBC0
0FFFF3C0
03FFC3C0
00FF03C0
ENDCHAR
STARTCHAR 00FC
ENCODING 252
SWIDTH 609 0
DWIDTH 33 0
BBX 26 39 3 0
BITMAP
07C0F800
07C0F800
07C0F800
07C0F800
07C0F800
00000000
00000000
00000000
00000000
00000000
F80007C0
F80007C0
F80007C0
F80007C0
F80007C0
F80007C0
F80007C0
F80007C0
F80007C0
F80007C0
F80007C0
F80007C0
F80007C0
F80007C0
F80007C0
F80007C0
F80007C0
F80007C0
FC0007C0
7C000FC0
7C000FC0
7E001FC0
3F003FC0
3F807FC0
1FFFFFC0
1FFFFBC0
0FFFF3C0
03FFC3C0
00FF03C0
ENDCHAR
STARTCHAR 00FD
ENCODING 253
SWIDTH 535 0
DWIDTH 29 0
BBX 27 55 1 -13
BITMAP
0001E000
0003C000
0003C000
0003C000
00078000
00078000
000F0000
000F0000
000F0000
00000000
00000000
00000000
00000000
F80003E0
F80003E0
7C0003E0
7C0007C0
3E0007C0
3E000780
3E000F80
1F000F80
1F001F00
0F801F00
0F801F00
0F803E00
07C03E00
07C03C00
03E07C00
03E07C00
01E0F800
01F0F800
01F0F000
00F9F000
00F9F000
0079E000
007FE000
007FE000
003FC000
003FC000
001F8000
001F8000
001F8000
000F0000
001F0000
001F0000
003E0000
003E0000
003C0000
007C0000
007C0000
00780000
00F80000
00F80000
01F00000
01F00000
ENDCHAR
STARTCHAR 00FE
ENCODING 254
SWIDTH 609 0
DWIDTH 33 0
BBX 26 51 4 -12
BITMAP
F8000000
F8000000
F8000000
F8000000
F8000000
F8000000
F8000000
F8000000
F8000000
F8000000
F87F8000
F9FFE000
FBFFF800
FFFFFC00
FFF7FE00
FF007F00
FE003F00
FC001F80
F8000F80
F8000FC0
F80007C0
F00007C0
F00007C0
F00007C0
F00007C0
F00007C0
F00007C0
F00007C0
F80007C0
F8000FC0
F8000F80
FC001F80
FE003F00
FF007F00
FFF3FE00
FFFFFC00
FBFFF800
F9FFF000
F83F8000
F8000000
F8000000
F8000000
F8000000
F8000000
F8000000
F8000000
F8000000
F8000000
F8000000
F8000000
F8000000
ENDCHAR
STARTCHAR 00FF
ENCODING 255
SWIDTH 535 0
DWIDTH 29 0
BBX 27 52 1 -13
BITMAP
03E07C00
03E07C00
03E07C00
03E07C00
03E07C00
00000000
00000000
00000000
00000000
00000000
F80003E0
F80003E0
7C0003E0
7C0007C0
3E0007C0
3E000780
3E000F80
1F000F80
1F001F00
0F801F00
0F801F00
0F803E00
07C03E00
07C03C00
03E07C00
03E07C00
01E0F800
01F0F800
01F0F000
00F9F000
00F9F000
0079E000
007FE000
007FE000
003FC000
003FC000
001F8000
001F8000
001F8000
000F0000
001F0000
001F0000
003E0000
003E0000
003C0000
007C0000
007C0000
00780000
00F80000
00F80000
01F00000
01F00000
ENDCHAR
ENDFONT
